M48
METRIC,TZ
T1C0.300
T2C0.800
T3C0.890
T4C1.000
T5C1.100
T6C1.300
T7C1.700
T8C2.010
T9C3.200
%
G90
G05
T1
X113030Y-57150
X113030Y-58420
X113030Y-59690
X113030Y-60960
X113030Y-62230
X113030Y-63500
X113030Y-64770
X113030Y-66040
X113030Y-67310
X113030Y-68580
X113030Y-69850
X113030Y-71120
X113030Y-72390
X113030Y-73660
X113030Y-74930
X113030Y-76200
X113030Y-77470
X114300Y-77470
X115570Y-77470
X116205Y-40640
X116205Y-41910
X116205Y-48895
X116205Y-59690
X116840Y-77470
X117475Y-40640
X117475Y-41910
X117475Y-48895
X117475Y-59690
X118110Y-53975
X118110Y-77470
X119380Y-53975
X119380Y-77470
X120015Y-72390
X120650Y-65405
X120650Y-71120
X120650Y-77470
X121285Y-72390
X121920Y-59690
X121920Y-65405
X121920Y-69850
X121920Y-77470
X122555Y-60325
X122555Y-98425
X122555Y-99695
X123190Y-77470
X123825Y-69850
X123825Y-98425
X123825Y-99695
X124460Y-59690
X124460Y-65405
X124460Y-72390
X124460Y-77470
X125095Y-43180
X125095Y-44450
X125095Y-71120
X125095Y-98425
X125730Y-65405
X125730Y-72390
X125730Y-77470
X126365Y-98425
X127000Y-40005
X127000Y-77470
X127635Y-98425
X128270Y-38735
X128270Y-45085
X128270Y-53975
X128270Y-59690
X128905Y-98425
X129540Y-37465
X129540Y-45085
X129540Y-53975
X129540Y-59690
X130175Y-77470
X130175Y-78740
X130175Y-98425
X131445Y-36195
X131445Y-98425
X132715Y-98425
X133350Y-36195
X133985Y-98425
X135255Y-36195
X135255Y-39980
X135255Y-41275
X135255Y-42520
X135255Y-43790
X135255Y-45060
X135255Y-46355
X135255Y-49530
X135255Y-50800
X135255Y-52070
X135255Y-53340
X135255Y-54610
X135255Y-55880
X135255Y-57150
X135255Y-58420
X135255Y-59690
X135255Y-60960
X135255Y-62230
X135255Y-63500
X135255Y-64770
X135255Y-66040
X135255Y-67310
X135255Y-68580
X135255Y-69850
X135255Y-71120
X135255Y-72390
X135255Y-73660
X135255Y-74930
X135255Y-98425
X136525Y-40005
X136525Y-75565
X136525Y-98425
X137160Y-36195
X137795Y-40005
X137795Y-75565
X137795Y-98425
X139065Y-36195
X139065Y-40005
X139065Y-75565
X139065Y-98425
X140335Y-40005
X140335Y-47625
X140335Y-48895
X140335Y-52070
X140335Y-54610
X140335Y-57150
X140335Y-60325
X140335Y-61595
X140335Y-64770
X140335Y-67310
X140335Y-69850
X140335Y-73025
X140335Y-74295
X140335Y-98425
X140970Y-36195
X141605Y-40005
X141605Y-47625
X141605Y-48895
X141605Y-60325
X141605Y-61595
X141605Y-73025
X141605Y-89535
X141605Y-98425
X142875Y-36195
X142875Y-40005
X142875Y-47625
X142875Y-48895
X142875Y-60325
X142875Y-61595
X142875Y-73025
X142875Y-89535
X142875Y-98425
X144145Y-40005
X144145Y-47625
X144145Y-48895
X144145Y-60325
X144145Y-61595
X144145Y-73025
X144145Y-89535
X144145Y-98425
X144780Y-36195
X145415Y-40005
X145415Y-44450
X145415Y-47625
X145415Y-48895
X145415Y-52070
X145415Y-54610
X145415Y-57150
X145415Y-60325
X145415Y-61595
X145415Y-64770
X145415Y-67310
X145415Y-69850
X145415Y-73025
X145415Y-81915
X145415Y-83185
X145415Y-84455
X145415Y-85725
X145415Y-86995
X145415Y-88265
X145415Y-89535
X145415Y-90805
X145415Y-94615
X145415Y-95885
X145415Y-97155
X145415Y-98425
X146685Y-36195
X146685Y-40005
X147955Y-40005
X148590Y-36195
X149225Y-40005
X150495Y-36195
X150495Y-40005
X150495Y-41275
X150495Y-42545
X150495Y-43815
X150495Y-45085
X150495Y-46355
X150495Y-47625
X150495Y-48895
X150495Y-50165
X150495Y-51435
X150495Y-52705
X150495Y-53975
X150495Y-55245
X150495Y-56515
X150495Y-57785
X150495Y-59055
X150495Y-60325
X150495Y-61595
X150495Y-62865
X150495Y-64135
X150495Y-65405
X150495Y-66675
X150495Y-67945
X150495Y-69215
X150495Y-70485
X150495Y-71755
X150495Y-73025
X150495Y-74295
X150495Y-75565
X150495Y-76835
X150495Y-78105
X150495Y-79375
X150495Y-80645
X152400Y-36195
X152400Y-55245
X152400Y-56515
X152400Y-65405
X152400Y-66675
X152400Y-75565
X152400Y-76835
X153670Y-55245
X153670Y-56515
X153670Y-65405
X153670Y-66675
X153670Y-75565
X153670Y-76835
X154305Y-36195
X156210Y-36195
X156845Y-50165
X156845Y-51435
X156845Y-60325
X156845Y-61595
X156845Y-70485
X156845Y-71755
X156845Y-80645
X156845Y-81915
X158115Y-36195
X158750Y-50165
X158750Y-51435
X158750Y-60325
X158750Y-61595
X158750Y-70485
X158750Y-71755
X158750Y-80645
X158750Y-81915
X160020Y-36195
X161925Y-36195
X161925Y-55245
X161925Y-56515
X161925Y-65405
X161925Y-66675
X161925Y-75565
X161925Y-76835
X161925Y-85725
X161925Y-86995
X161925Y-98425
X161925Y-99695
X163195Y-55245
X163195Y-56515
X163195Y-65405
X163195Y-66675
X163195Y-75565
X163195Y-76835
X163195Y-85725
X163195Y-86995
X163195Y-98425
X163195Y-99695
X163830Y-36195
X165735Y-36195
X167640Y-36195
X169545Y-36195
X170180Y-41910
X170180Y-43180
X170180Y-68580
X170180Y-75565
X170180Y-86360
X171450Y-36195
X171450Y-68580
X171450Y-75565
X171450Y-86360
X172720Y-86360
X173355Y-36195
X173990Y-86360
X173990Y-98425
X173990Y-99695
X175260Y-36195
X175260Y-98425
X175260Y-99695
X177165Y-36195
X177165Y-60960
X178435Y-55245
X178435Y-56515
X178435Y-60960
X179070Y-36830
X179070Y-38100
X179070Y-39370
X179070Y-45720
X179070Y-46990
X179070Y-48260
X179070Y-49530
X179070Y-50800
X179695Y-84445
X179695Y-85715
X180340Y-36830
X180340Y-38100
X180340Y-39370
X180340Y-40640
X180340Y-46990
X180340Y-48260
X180340Y-49530
X180340Y-50800
X180975Y-66040
X180975Y-71120
X181610Y-41910
X181610Y-48260
X181610Y-49530
X181610Y-50800
X182245Y-66040
X182245Y-71120
X182245Y-90170
X182880Y-41910
X182880Y-43180
X182880Y-49530
X182880Y-50800
X182880Y-57785
X183515Y-66040
X183515Y-71120
X183515Y-90170
X184150Y-41910
X184150Y-43180
X184150Y-44450
X184150Y-50800
X184150Y-57785
X184785Y-90170
X185420Y-41910
X185420Y-43180
X185420Y-44450
X185420Y-45720
X186055Y-90170
X186690Y-39370
X186690Y-40640
X186690Y-41910
X186690Y-43180
X186690Y-44450
X186690Y-45720
X186690Y-46990
X187325Y-90170
X187960Y-39370
X187960Y-40640
X187960Y-41910
X187960Y-43180
X187960Y-44450
X187960Y-45720
X187960Y-46990
X187960Y-53975
X187960Y-55245
X187960Y-56515
X187960Y-79375
X187960Y-80645
X187960Y-81915
X187960Y-85090
X187960Y-86360
X187960Y-87630
X187960Y-88900
X188025Y-48320
X190500Y-46355
X190500Y-47625
X191770Y-34290
X191770Y-35560
X191770Y-46355
X191770Y-47625
X193040Y-34290
X193040Y-35560
X196215Y-48260
X196215Y-49530
X196850Y-73025
X196850Y-74295
X196850Y-75565
X196850Y-76835
X196850Y-78105
X196850Y-79375
X196850Y-80645
X197485Y-48260
X197485Y-49530
X198120Y-73025
X198120Y-74295
X198120Y-75565
X198120Y-76835
X198120Y-78105
X198755Y-49530
X198755Y-67133
X198755Y-68403
X200660Y-55245
X201930Y-44450
X201930Y-55245
X203200Y-55245
X203835Y-44450
X203835Y-80645
X203835Y-81915
X203835Y-83185
X204470Y-55245
X205105Y-80645
X205105Y-81915
X205105Y-83185
X205740Y-55245
X206375Y-80645
X206375Y-81915
X206375Y-83185
X206375Y-85725
X206375Y-86995
X206375Y-88265
X207645Y-85725
X207645Y-86995
X207645Y-88265
X208915Y-85725
X208915Y-86995
X208915Y-88265
T2
X113263Y-46920
X113263Y-49460
X113263Y-52000
X113263Y-54540
X120882Y-46920
X120882Y-49460
X120882Y-52000
X120882Y-54540
X121960Y-38735
X124460Y-38735
X125318Y-46930
X125318Y-49470
X125318Y-52010
X125318Y-54550
X130150Y-41910
X132650Y-41910
X132938Y-46930
X132938Y-49470
X132938Y-52010
X132938Y-54550
X171505Y-72390
X174005Y-72390
X177790Y-80010
X177790Y-87630
X177790Y-92065
X180290Y-92065
X180330Y-80010
X180330Y-87630
X182870Y-80010
X182870Y-87630
X185410Y-80010
X185410Y-87630
X196850Y-34811
X196850Y-36811
X196850Y-40705
X196850Y-43205
X198120Y-56338
X198120Y-58338
X200660Y-65268
X200660Y-67768
X201930Y-46718
X201930Y-48718
X204470Y-73773
X204470Y-75773
T3
X125095Y-88265
X125095Y-90805
T4
X116580Y-64895
X116580Y-67435
X116580Y-69975
X129840Y-81325
X130550Y-64895
X130550Y-67435
X130550Y-69975
X141840Y-81325
X147955Y-98425
X148710Y-43207
X148710Y-45748
X148710Y-48287
X148710Y-50828
X148710Y-53368
X148710Y-55908
X148710Y-58448
X148710Y-60988
X148710Y-63528
X148710Y-66068
X148710Y-68608
X148710Y-71147
X148710Y-73688
X148710Y-76227
X148710Y-78768
X148710Y-81307
X148710Y-83848
X148710Y-86388
X148710Y-88928
X148710Y-91468
X150495Y-98425
X153035Y-98425
X155575Y-98425
X166490Y-43207
X166490Y-45748
X166490Y-48287
X166490Y-50828
X166490Y-53368
X166490Y-55908
X166490Y-58448
X166490Y-60988
X166490Y-63528
X166490Y-66068
X166490Y-68608
X166490Y-71147
X166490Y-73688
X166490Y-76227
X166490Y-78768
X166490Y-81307
X166490Y-83848
X166490Y-86388
X166490Y-88928
X166490Y-91468
X172720Y-49530
X172720Y-52070
X172720Y-54610
X172720Y-60960
X172720Y-63500
X172720Y-66040
X172720Y-78740
X172720Y-81280
X172720Y-83820
X172720Y-88900
X172720Y-91440
X208908Y-68085
X208908Y-70625
X208908Y-73165
X208915Y-47448
X208915Y-49988
X208915Y-52528
T5
X177790Y-75555
X180975Y-55585
X183515Y-55585
X186055Y-55585
X187950Y-75555
X207963Y-57608
X207963Y-60148
X207963Y-62688
X207985Y-36653
X207985Y-39193
X207985Y-41733
T6
X135890Y-79375
X141890Y-93575
X182315Y-68580
X187315Y-68580
T7
X178945Y-99060
X185705Y-99060
X195295Y-99060
X202055Y-99060
T8
X120015Y-83185
X120015Y-93345
T9
X115570Y-35560
X115570Y-99695
X207645Y-99695
T4
G00X197200Y-87995
M15
G01X197200Y-85995
M16
G05
G00X201200Y-82295
M15
G01X199200Y-82295
M16
G05
G00X203200Y-87995
M15
G01X203200Y-85995
M16
G05
M30
