%TF.GenerationSoftware,KiCad,Pcbnew,8.0.1*%
%TF.CreationDate,2024-05-10T19:46:58+02:00*%
%TF.ProjectId,SiganlGen,53696761-6e6c-4476-956e-2e6b69636164,rev?*%
%TF.SameCoordinates,Original*%
%TF.FileFunction,Legend,Bot*%
%TF.FilePolarity,Positive*%
%FSLAX46Y46*%
G04 Gerber Fmt 4.6, Leading zero omitted, Abs format (unit mm)*
G04 Created by KiCad (PCBNEW 8.0.1) date 2024-05-10 19:46:58*
%MOMM*%
%LPD*%
G01*
G04 APERTURE LIST*
%ADD10C,0.150000*%
%ADD11C,0.120000*%
%ADD12C,0.350000*%
%ADD13O,1.000000X3.000000*%
%ADD14O,3.000000X1.000000*%
G04 APERTURE END LIST*
D10*
X202384819Y-72093508D02*
X202384819Y-71522080D01*
X202384819Y-71807794D02*
X201384819Y-71807794D01*
X201384819Y-71807794D02*
X201527676Y-71712556D01*
X201527676Y-71712556D02*
X201622914Y-71617318D01*
X201622914Y-71617318D02*
X201670533Y-71522080D01*
X202384819Y-72522080D02*
X201384819Y-72522080D01*
X202003866Y-72617318D02*
X202384819Y-72903032D01*
X201718152Y-72903032D02*
X202099104Y-72522080D01*
X118594047Y-45539819D02*
X119165475Y-45539819D01*
X118879761Y-45539819D02*
X118879761Y-44539819D01*
X118879761Y-44539819D02*
X118974999Y-44682676D01*
X118974999Y-44682676D02*
X119070237Y-44777914D01*
X119070237Y-44777914D02*
X119165475Y-44825533D01*
X117974999Y-44539819D02*
X117879761Y-44539819D01*
X117879761Y-44539819D02*
X117784523Y-44587438D01*
X117784523Y-44587438D02*
X117736904Y-44635057D01*
X117736904Y-44635057D02*
X117689285Y-44730295D01*
X117689285Y-44730295D02*
X117641666Y-44920771D01*
X117641666Y-44920771D02*
X117641666Y-45158866D01*
X117641666Y-45158866D02*
X117689285Y-45349342D01*
X117689285Y-45349342D02*
X117736904Y-45444580D01*
X117736904Y-45444580D02*
X117784523Y-45492200D01*
X117784523Y-45492200D02*
X117879761Y-45539819D01*
X117879761Y-45539819D02*
X117974999Y-45539819D01*
X117974999Y-45539819D02*
X118070237Y-45492200D01*
X118070237Y-45492200D02*
X118117856Y-45444580D01*
X118117856Y-45444580D02*
X118165475Y-45349342D01*
X118165475Y-45349342D02*
X118213094Y-45158866D01*
X118213094Y-45158866D02*
X118213094Y-44920771D01*
X118213094Y-44920771D02*
X118165475Y-44730295D01*
X118165475Y-44730295D02*
X118117856Y-44635057D01*
X118117856Y-44635057D02*
X118070237Y-44587438D01*
X118070237Y-44587438D02*
X117974999Y-44539819D01*
X117022618Y-44539819D02*
X116927380Y-44539819D01*
X116927380Y-44539819D02*
X116832142Y-44587438D01*
X116832142Y-44587438D02*
X116784523Y-44635057D01*
X116784523Y-44635057D02*
X116736904Y-44730295D01*
X116736904Y-44730295D02*
X116689285Y-44920771D01*
X116689285Y-44920771D02*
X116689285Y-45158866D01*
X116689285Y-45158866D02*
X116736904Y-45349342D01*
X116736904Y-45349342D02*
X116784523Y-45444580D01*
X116784523Y-45444580D02*
X116832142Y-45492200D01*
X116832142Y-45492200D02*
X116927380Y-45539819D01*
X116927380Y-45539819D02*
X117022618Y-45539819D01*
X117022618Y-45539819D02*
X117117856Y-45492200D01*
X117117856Y-45492200D02*
X117165475Y-45444580D01*
X117165475Y-45444580D02*
X117213094Y-45349342D01*
X117213094Y-45349342D02*
X117260713Y-45158866D01*
X117260713Y-45158866D02*
X117260713Y-44920771D01*
X117260713Y-44920771D02*
X117213094Y-44730295D01*
X117213094Y-44730295D02*
X117165475Y-44635057D01*
X117165475Y-44635057D02*
X117117856Y-44587438D01*
X117117856Y-44587438D02*
X117022618Y-44539819D01*
X116260713Y-44873152D02*
X116260713Y-45539819D01*
X116260713Y-44968390D02*
X116213094Y-44920771D01*
X116213094Y-44920771D02*
X116117856Y-44873152D01*
X116117856Y-44873152D02*
X115974999Y-44873152D01*
X115974999Y-44873152D02*
X115879761Y-44920771D01*
X115879761Y-44920771D02*
X115832142Y-45016009D01*
X115832142Y-45016009D02*
X115832142Y-45539819D01*
X129359819Y-76985952D02*
X129359819Y-76414524D01*
X129359819Y-76700238D02*
X128359819Y-76700238D01*
X128359819Y-76700238D02*
X128502676Y-76605000D01*
X128502676Y-76605000D02*
X128597914Y-76509762D01*
X128597914Y-76509762D02*
X128645533Y-76414524D01*
X128359819Y-77605000D02*
X128359819Y-77700238D01*
X128359819Y-77700238D02*
X128407438Y-77795476D01*
X128407438Y-77795476D02*
X128455057Y-77843095D01*
X128455057Y-77843095D02*
X128550295Y-77890714D01*
X128550295Y-77890714D02*
X128740771Y-77938333D01*
X128740771Y-77938333D02*
X128978866Y-77938333D01*
X128978866Y-77938333D02*
X129169342Y-77890714D01*
X129169342Y-77890714D02*
X129264580Y-77843095D01*
X129264580Y-77843095D02*
X129312200Y-77795476D01*
X129312200Y-77795476D02*
X129359819Y-77700238D01*
X129359819Y-77700238D02*
X129359819Y-77605000D01*
X129359819Y-77605000D02*
X129312200Y-77509762D01*
X129312200Y-77509762D02*
X129264580Y-77462143D01*
X129264580Y-77462143D02*
X129169342Y-77414524D01*
X129169342Y-77414524D02*
X128978866Y-77366905D01*
X128978866Y-77366905D02*
X128740771Y-77366905D01*
X128740771Y-77366905D02*
X128550295Y-77414524D01*
X128550295Y-77414524D02*
X128455057Y-77462143D01*
X128455057Y-77462143D02*
X128407438Y-77509762D01*
X128407438Y-77509762D02*
X128359819Y-77605000D01*
X128359819Y-78557381D02*
X128359819Y-78652619D01*
X128359819Y-78652619D02*
X128407438Y-78747857D01*
X128407438Y-78747857D02*
X128455057Y-78795476D01*
X128455057Y-78795476D02*
X128550295Y-78843095D01*
X128550295Y-78843095D02*
X128740771Y-78890714D01*
X128740771Y-78890714D02*
X128978866Y-78890714D01*
X128978866Y-78890714D02*
X129169342Y-78843095D01*
X129169342Y-78843095D02*
X129264580Y-78795476D01*
X129264580Y-78795476D02*
X129312200Y-78747857D01*
X129312200Y-78747857D02*
X129359819Y-78652619D01*
X129359819Y-78652619D02*
X129359819Y-78557381D01*
X129359819Y-78557381D02*
X129312200Y-78462143D01*
X129312200Y-78462143D02*
X129264580Y-78414524D01*
X129264580Y-78414524D02*
X129169342Y-78366905D01*
X129169342Y-78366905D02*
X128978866Y-78319286D01*
X128978866Y-78319286D02*
X128740771Y-78319286D01*
X128740771Y-78319286D02*
X128550295Y-78366905D01*
X128550295Y-78366905D02*
X128455057Y-78414524D01*
X128455057Y-78414524D02*
X128407438Y-78462143D01*
X128407438Y-78462143D02*
X128359819Y-78557381D01*
X128693152Y-79319286D02*
X129359819Y-79319286D01*
X128788390Y-79319286D02*
X128740771Y-79366905D01*
X128740771Y-79366905D02*
X128693152Y-79462143D01*
X128693152Y-79462143D02*
X128693152Y-79605000D01*
X128693152Y-79605000D02*
X128740771Y-79700238D01*
X128740771Y-79700238D02*
X128836009Y-79747857D01*
X128836009Y-79747857D02*
X129359819Y-79747857D01*
X137091009Y-85137857D02*
X137138628Y-85280714D01*
X137138628Y-85280714D02*
X137186247Y-85328333D01*
X137186247Y-85328333D02*
X137281485Y-85375952D01*
X137281485Y-85375952D02*
X137424342Y-85375952D01*
X137424342Y-85375952D02*
X137519580Y-85328333D01*
X137519580Y-85328333D02*
X137567200Y-85280714D01*
X137567200Y-85280714D02*
X137614819Y-85185476D01*
X137614819Y-85185476D02*
X137614819Y-84804524D01*
X137614819Y-84804524D02*
X136614819Y-84804524D01*
X136614819Y-84804524D02*
X136614819Y-85137857D01*
X136614819Y-85137857D02*
X136662438Y-85233095D01*
X136662438Y-85233095D02*
X136710057Y-85280714D01*
X136710057Y-85280714D02*
X136805295Y-85328333D01*
X136805295Y-85328333D02*
X136900533Y-85328333D01*
X136900533Y-85328333D02*
X136995771Y-85280714D01*
X136995771Y-85280714D02*
X137043390Y-85233095D01*
X137043390Y-85233095D02*
X137091009Y-85137857D01*
X137091009Y-85137857D02*
X137091009Y-84804524D01*
X137519580Y-86375952D02*
X137567200Y-86328333D01*
X137567200Y-86328333D02*
X137614819Y-86185476D01*
X137614819Y-86185476D02*
X137614819Y-86090238D01*
X137614819Y-86090238D02*
X137567200Y-85947381D01*
X137567200Y-85947381D02*
X137471961Y-85852143D01*
X137471961Y-85852143D02*
X137376723Y-85804524D01*
X137376723Y-85804524D02*
X137186247Y-85756905D01*
X137186247Y-85756905D02*
X137043390Y-85756905D01*
X137043390Y-85756905D02*
X136852914Y-85804524D01*
X136852914Y-85804524D02*
X136757676Y-85852143D01*
X136757676Y-85852143D02*
X136662438Y-85947381D01*
X136662438Y-85947381D02*
X136614819Y-86090238D01*
X136614819Y-86090238D02*
X136614819Y-86185476D01*
X136614819Y-86185476D02*
X136662438Y-86328333D01*
X136662438Y-86328333D02*
X136710057Y-86375952D01*
X137043390Y-86947381D02*
X136995771Y-86852143D01*
X136995771Y-86852143D02*
X136948152Y-86804524D01*
X136948152Y-86804524D02*
X136852914Y-86756905D01*
X136852914Y-86756905D02*
X136805295Y-86756905D01*
X136805295Y-86756905D02*
X136710057Y-86804524D01*
X136710057Y-86804524D02*
X136662438Y-86852143D01*
X136662438Y-86852143D02*
X136614819Y-86947381D01*
X136614819Y-86947381D02*
X136614819Y-87137857D01*
X136614819Y-87137857D02*
X136662438Y-87233095D01*
X136662438Y-87233095D02*
X136710057Y-87280714D01*
X136710057Y-87280714D02*
X136805295Y-87328333D01*
X136805295Y-87328333D02*
X136852914Y-87328333D01*
X136852914Y-87328333D02*
X136948152Y-87280714D01*
X136948152Y-87280714D02*
X136995771Y-87233095D01*
X136995771Y-87233095D02*
X137043390Y-87137857D01*
X137043390Y-87137857D02*
X137043390Y-86947381D01*
X137043390Y-86947381D02*
X137091009Y-86852143D01*
X137091009Y-86852143D02*
X137138628Y-86804524D01*
X137138628Y-86804524D02*
X137233866Y-86756905D01*
X137233866Y-86756905D02*
X137424342Y-86756905D01*
X137424342Y-86756905D02*
X137519580Y-86804524D01*
X137519580Y-86804524D02*
X137567200Y-86852143D01*
X137567200Y-86852143D02*
X137614819Y-86947381D01*
X137614819Y-86947381D02*
X137614819Y-87137857D01*
X137614819Y-87137857D02*
X137567200Y-87233095D01*
X137567200Y-87233095D02*
X137519580Y-87280714D01*
X137519580Y-87280714D02*
X137424342Y-87328333D01*
X137424342Y-87328333D02*
X137233866Y-87328333D01*
X137233866Y-87328333D02*
X137138628Y-87280714D01*
X137138628Y-87280714D02*
X137091009Y-87233095D01*
X137091009Y-87233095D02*
X137043390Y-87137857D01*
X137614819Y-88280714D02*
X137614819Y-87709286D01*
X137614819Y-87995000D02*
X136614819Y-87995000D01*
X136614819Y-87995000D02*
X136757676Y-87899762D01*
X136757676Y-87899762D02*
X136852914Y-87804524D01*
X136852914Y-87804524D02*
X136900533Y-87709286D01*
X136614819Y-88614048D02*
X136614819Y-89280714D01*
X136614819Y-89280714D02*
X137614819Y-88852143D01*
X139096666Y-96974819D02*
X139668094Y-96974819D01*
X139382380Y-96974819D02*
X139382380Y-95974819D01*
X139382380Y-95974819D02*
X139477618Y-96117676D01*
X139477618Y-96117676D02*
X139572856Y-96212914D01*
X139572856Y-96212914D02*
X139668094Y-96260533D01*
X138477618Y-95974819D02*
X138382380Y-95974819D01*
X138382380Y-95974819D02*
X138287142Y-96022438D01*
X138287142Y-96022438D02*
X138239523Y-96070057D01*
X138239523Y-96070057D02*
X138191904Y-96165295D01*
X138191904Y-96165295D02*
X138144285Y-96355771D01*
X138144285Y-96355771D02*
X138144285Y-96593866D01*
X138144285Y-96593866D02*
X138191904Y-96784342D01*
X138191904Y-96784342D02*
X138239523Y-96879580D01*
X138239523Y-96879580D02*
X138287142Y-96927200D01*
X138287142Y-96927200D02*
X138382380Y-96974819D01*
X138382380Y-96974819D02*
X138477618Y-96974819D01*
X138477618Y-96974819D02*
X138572856Y-96927200D01*
X138572856Y-96927200D02*
X138620475Y-96879580D01*
X138620475Y-96879580D02*
X138668094Y-96784342D01*
X138668094Y-96784342D02*
X138715713Y-96593866D01*
X138715713Y-96593866D02*
X138715713Y-96355771D01*
X138715713Y-96355771D02*
X138668094Y-96165295D01*
X138668094Y-96165295D02*
X138620475Y-96070057D01*
X138620475Y-96070057D02*
X138572856Y-96022438D01*
X138572856Y-96022438D02*
X138477618Y-95974819D01*
X137525237Y-95974819D02*
X137429999Y-95974819D01*
X137429999Y-95974819D02*
X137334761Y-96022438D01*
X137334761Y-96022438D02*
X137287142Y-96070057D01*
X137287142Y-96070057D02*
X137239523Y-96165295D01*
X137239523Y-96165295D02*
X137191904Y-96355771D01*
X137191904Y-96355771D02*
X137191904Y-96593866D01*
X137191904Y-96593866D02*
X137239523Y-96784342D01*
X137239523Y-96784342D02*
X137287142Y-96879580D01*
X137287142Y-96879580D02*
X137334761Y-96927200D01*
X137334761Y-96927200D02*
X137429999Y-96974819D01*
X137429999Y-96974819D02*
X137525237Y-96974819D01*
X137525237Y-96974819D02*
X137620475Y-96927200D01*
X137620475Y-96927200D02*
X137668094Y-96879580D01*
X137668094Y-96879580D02*
X137715713Y-96784342D01*
X137715713Y-96784342D02*
X137763332Y-96593866D01*
X137763332Y-96593866D02*
X137763332Y-96355771D01*
X137763332Y-96355771D02*
X137715713Y-96165295D01*
X137715713Y-96165295D02*
X137668094Y-96070057D01*
X137668094Y-96070057D02*
X137620475Y-96022438D01*
X137620475Y-96022438D02*
X137525237Y-95974819D01*
X196917319Y-61385889D02*
X196917319Y-60814461D01*
X196917319Y-61100175D02*
X195917319Y-61100175D01*
X195917319Y-61100175D02*
X196060176Y-61004937D01*
X196060176Y-61004937D02*
X196155414Y-60909699D01*
X196155414Y-60909699D02*
X196203033Y-60814461D01*
X195917319Y-62004937D02*
X195917319Y-62100175D01*
X195917319Y-62100175D02*
X195964938Y-62195413D01*
X195964938Y-62195413D02*
X196012557Y-62243032D01*
X196012557Y-62243032D02*
X196107795Y-62290651D01*
X196107795Y-62290651D02*
X196298271Y-62338270D01*
X196298271Y-62338270D02*
X196536366Y-62338270D01*
X196536366Y-62338270D02*
X196726842Y-62290651D01*
X196726842Y-62290651D02*
X196822080Y-62243032D01*
X196822080Y-62243032D02*
X196869700Y-62195413D01*
X196869700Y-62195413D02*
X196917319Y-62100175D01*
X196917319Y-62100175D02*
X196917319Y-62004937D01*
X196917319Y-62004937D02*
X196869700Y-61909699D01*
X196869700Y-61909699D02*
X196822080Y-61862080D01*
X196822080Y-61862080D02*
X196726842Y-61814461D01*
X196726842Y-61814461D02*
X196536366Y-61766842D01*
X196536366Y-61766842D02*
X196298271Y-61766842D01*
X196298271Y-61766842D02*
X196107795Y-61814461D01*
X196107795Y-61814461D02*
X196012557Y-61862080D01*
X196012557Y-61862080D02*
X195964938Y-61909699D01*
X195964938Y-61909699D02*
X195917319Y-62004937D01*
X195917319Y-62957318D02*
X195917319Y-63052556D01*
X195917319Y-63052556D02*
X195964938Y-63147794D01*
X195964938Y-63147794D02*
X196012557Y-63195413D01*
X196012557Y-63195413D02*
X196107795Y-63243032D01*
X196107795Y-63243032D02*
X196298271Y-63290651D01*
X196298271Y-63290651D02*
X196536366Y-63290651D01*
X196536366Y-63290651D02*
X196726842Y-63243032D01*
X196726842Y-63243032D02*
X196822080Y-63195413D01*
X196822080Y-63195413D02*
X196869700Y-63147794D01*
X196869700Y-63147794D02*
X196917319Y-63052556D01*
X196917319Y-63052556D02*
X196917319Y-62957318D01*
X196917319Y-62957318D02*
X196869700Y-62862080D01*
X196869700Y-62862080D02*
X196822080Y-62814461D01*
X196822080Y-62814461D02*
X196726842Y-62766842D01*
X196726842Y-62766842D02*
X196536366Y-62719223D01*
X196536366Y-62719223D02*
X196298271Y-62719223D01*
X196298271Y-62719223D02*
X196107795Y-62766842D01*
X196107795Y-62766842D02*
X196012557Y-62814461D01*
X196012557Y-62814461D02*
X195964938Y-62862080D01*
X195964938Y-62862080D02*
X195917319Y-62957318D01*
X117324047Y-50784619D02*
X117895475Y-50784619D01*
X117609761Y-50784619D02*
X117609761Y-49784619D01*
X117609761Y-49784619D02*
X117704999Y-49927476D01*
X117704999Y-49927476D02*
X117800237Y-50022714D01*
X117800237Y-50022714D02*
X117895475Y-50070333D01*
X116704999Y-49784619D02*
X116609761Y-49784619D01*
X116609761Y-49784619D02*
X116514523Y-49832238D01*
X116514523Y-49832238D02*
X116466904Y-49879857D01*
X116466904Y-49879857D02*
X116419285Y-49975095D01*
X116419285Y-49975095D02*
X116371666Y-50165571D01*
X116371666Y-50165571D02*
X116371666Y-50403666D01*
X116371666Y-50403666D02*
X116419285Y-50594142D01*
X116419285Y-50594142D02*
X116466904Y-50689380D01*
X116466904Y-50689380D02*
X116514523Y-50737000D01*
X116514523Y-50737000D02*
X116609761Y-50784619D01*
X116609761Y-50784619D02*
X116704999Y-50784619D01*
X116704999Y-50784619D02*
X116800237Y-50737000D01*
X116800237Y-50737000D02*
X116847856Y-50689380D01*
X116847856Y-50689380D02*
X116895475Y-50594142D01*
X116895475Y-50594142D02*
X116943094Y-50403666D01*
X116943094Y-50403666D02*
X116943094Y-50165571D01*
X116943094Y-50165571D02*
X116895475Y-49975095D01*
X116895475Y-49975095D02*
X116847856Y-49879857D01*
X116847856Y-49879857D02*
X116800237Y-49832238D01*
X116800237Y-49832238D02*
X116704999Y-49784619D01*
X115752618Y-49784619D02*
X115657380Y-49784619D01*
X115657380Y-49784619D02*
X115562142Y-49832238D01*
X115562142Y-49832238D02*
X115514523Y-49879857D01*
X115514523Y-49879857D02*
X115466904Y-49975095D01*
X115466904Y-49975095D02*
X115419285Y-50165571D01*
X115419285Y-50165571D02*
X115419285Y-50403666D01*
X115419285Y-50403666D02*
X115466904Y-50594142D01*
X115466904Y-50594142D02*
X115514523Y-50689380D01*
X115514523Y-50689380D02*
X115562142Y-50737000D01*
X115562142Y-50737000D02*
X115657380Y-50784619D01*
X115657380Y-50784619D02*
X115752618Y-50784619D01*
X115752618Y-50784619D02*
X115847856Y-50737000D01*
X115847856Y-50737000D02*
X115895475Y-50689380D01*
X115895475Y-50689380D02*
X115943094Y-50594142D01*
X115943094Y-50594142D02*
X115990713Y-50403666D01*
X115990713Y-50403666D02*
X115990713Y-50165571D01*
X115990713Y-50165571D02*
X115943094Y-49975095D01*
X115943094Y-49975095D02*
X115895475Y-49879857D01*
X115895475Y-49879857D02*
X115847856Y-49832238D01*
X115847856Y-49832238D02*
X115752618Y-49784619D01*
X114990713Y-50117952D02*
X114990713Y-50784619D01*
X114990713Y-50213190D02*
X114943094Y-50165571D01*
X114943094Y-50165571D02*
X114847856Y-50117952D01*
X114847856Y-50117952D02*
X114704999Y-50117952D01*
X114704999Y-50117952D02*
X114609761Y-50165571D01*
X114609761Y-50165571D02*
X114562142Y-50260809D01*
X114562142Y-50260809D02*
X114562142Y-50784619D01*
X139096666Y-95069819D02*
X139668094Y-95069819D01*
X139382380Y-95069819D02*
X139382380Y-94069819D01*
X139382380Y-94069819D02*
X139477618Y-94212676D01*
X139477618Y-94212676D02*
X139572856Y-94307914D01*
X139572856Y-94307914D02*
X139668094Y-94355533D01*
X138477618Y-94069819D02*
X138382380Y-94069819D01*
X138382380Y-94069819D02*
X138287142Y-94117438D01*
X138287142Y-94117438D02*
X138239523Y-94165057D01*
X138239523Y-94165057D02*
X138191904Y-94260295D01*
X138191904Y-94260295D02*
X138144285Y-94450771D01*
X138144285Y-94450771D02*
X138144285Y-94688866D01*
X138144285Y-94688866D02*
X138191904Y-94879342D01*
X138191904Y-94879342D02*
X138239523Y-94974580D01*
X138239523Y-94974580D02*
X138287142Y-95022200D01*
X138287142Y-95022200D02*
X138382380Y-95069819D01*
X138382380Y-95069819D02*
X138477618Y-95069819D01*
X138477618Y-95069819D02*
X138572856Y-95022200D01*
X138572856Y-95022200D02*
X138620475Y-94974580D01*
X138620475Y-94974580D02*
X138668094Y-94879342D01*
X138668094Y-94879342D02*
X138715713Y-94688866D01*
X138715713Y-94688866D02*
X138715713Y-94450771D01*
X138715713Y-94450771D02*
X138668094Y-94260295D01*
X138668094Y-94260295D02*
X138620475Y-94165057D01*
X138620475Y-94165057D02*
X138572856Y-94117438D01*
X138572856Y-94117438D02*
X138477618Y-94069819D01*
X137525237Y-94069819D02*
X137429999Y-94069819D01*
X137429999Y-94069819D02*
X137334761Y-94117438D01*
X137334761Y-94117438D02*
X137287142Y-94165057D01*
X137287142Y-94165057D02*
X137239523Y-94260295D01*
X137239523Y-94260295D02*
X137191904Y-94450771D01*
X137191904Y-94450771D02*
X137191904Y-94688866D01*
X137191904Y-94688866D02*
X137239523Y-94879342D01*
X137239523Y-94879342D02*
X137287142Y-94974580D01*
X137287142Y-94974580D02*
X137334761Y-95022200D01*
X137334761Y-95022200D02*
X137429999Y-95069819D01*
X137429999Y-95069819D02*
X137525237Y-95069819D01*
X137525237Y-95069819D02*
X137620475Y-95022200D01*
X137620475Y-95022200D02*
X137668094Y-94974580D01*
X137668094Y-94974580D02*
X137715713Y-94879342D01*
X137715713Y-94879342D02*
X137763332Y-94688866D01*
X137763332Y-94688866D02*
X137763332Y-94450771D01*
X137763332Y-94450771D02*
X137715713Y-94260295D01*
X137715713Y-94260295D02*
X137668094Y-94165057D01*
X137668094Y-94165057D02*
X137620475Y-94117438D01*
X137620475Y-94117438D02*
X137525237Y-94069819D01*
X204707857Y-57604819D02*
X205279285Y-57604819D01*
X204993571Y-57604819D02*
X204993571Y-56604819D01*
X204993571Y-56604819D02*
X205088809Y-56747676D01*
X205088809Y-56747676D02*
X205184047Y-56842914D01*
X205184047Y-56842914D02*
X205279285Y-56890533D01*
X204279285Y-57604819D02*
X204279285Y-56604819D01*
X204279285Y-56604819D02*
X203707857Y-57604819D01*
X203707857Y-57604819D02*
X203707857Y-56604819D01*
X202803095Y-56938152D02*
X202803095Y-57604819D01*
X203041190Y-56557200D02*
X203279285Y-57271485D01*
X203279285Y-57271485D02*
X202660238Y-57271485D01*
X202088809Y-56604819D02*
X201993571Y-56604819D01*
X201993571Y-56604819D02*
X201898333Y-56652438D01*
X201898333Y-56652438D02*
X201850714Y-56700057D01*
X201850714Y-56700057D02*
X201803095Y-56795295D01*
X201803095Y-56795295D02*
X201755476Y-56985771D01*
X201755476Y-56985771D02*
X201755476Y-57223866D01*
X201755476Y-57223866D02*
X201803095Y-57414342D01*
X201803095Y-57414342D02*
X201850714Y-57509580D01*
X201850714Y-57509580D02*
X201898333Y-57557200D01*
X201898333Y-57557200D02*
X201993571Y-57604819D01*
X201993571Y-57604819D02*
X202088809Y-57604819D01*
X202088809Y-57604819D02*
X202184047Y-57557200D01*
X202184047Y-57557200D02*
X202231666Y-57509580D01*
X202231666Y-57509580D02*
X202279285Y-57414342D01*
X202279285Y-57414342D02*
X202326904Y-57223866D01*
X202326904Y-57223866D02*
X202326904Y-56985771D01*
X202326904Y-56985771D02*
X202279285Y-56795295D01*
X202279285Y-56795295D02*
X202231666Y-56700057D01*
X202231666Y-56700057D02*
X202184047Y-56652438D01*
X202184047Y-56652438D02*
X202088809Y-56604819D01*
X201136428Y-56604819D02*
X201041190Y-56604819D01*
X201041190Y-56604819D02*
X200945952Y-56652438D01*
X200945952Y-56652438D02*
X200898333Y-56700057D01*
X200898333Y-56700057D02*
X200850714Y-56795295D01*
X200850714Y-56795295D02*
X200803095Y-56985771D01*
X200803095Y-56985771D02*
X200803095Y-57223866D01*
X200803095Y-57223866D02*
X200850714Y-57414342D01*
X200850714Y-57414342D02*
X200898333Y-57509580D01*
X200898333Y-57509580D02*
X200945952Y-57557200D01*
X200945952Y-57557200D02*
X201041190Y-57604819D01*
X201041190Y-57604819D02*
X201136428Y-57604819D01*
X201136428Y-57604819D02*
X201231666Y-57557200D01*
X201231666Y-57557200D02*
X201279285Y-57509580D01*
X201279285Y-57509580D02*
X201326904Y-57414342D01*
X201326904Y-57414342D02*
X201374523Y-57223866D01*
X201374523Y-57223866D02*
X201374523Y-56985771D01*
X201374523Y-56985771D02*
X201326904Y-56795295D01*
X201326904Y-56795295D02*
X201279285Y-56700057D01*
X201279285Y-56700057D02*
X201231666Y-56652438D01*
X201231666Y-56652438D02*
X201136428Y-56604819D01*
X200469761Y-56604819D02*
X199803095Y-56604819D01*
X199803095Y-56604819D02*
X200231666Y-57604819D01*
X202824819Y-38383198D02*
X202824819Y-37811770D01*
X202824819Y-38097484D02*
X201824819Y-38097484D01*
X201824819Y-38097484D02*
X201967676Y-38002246D01*
X201967676Y-38002246D02*
X202062914Y-37907008D01*
X202062914Y-37907008D02*
X202110533Y-37811770D01*
X202824819Y-38811770D02*
X201824819Y-38811770D01*
X201824819Y-38811770D02*
X202824819Y-39383198D01*
X202824819Y-39383198D02*
X201824819Y-39383198D01*
X202158152Y-40287960D02*
X202824819Y-40287960D01*
X201777200Y-40049865D02*
X202491485Y-39811770D01*
X202491485Y-39811770D02*
X202491485Y-40430817D01*
X201824819Y-41002246D02*
X201824819Y-41097484D01*
X201824819Y-41097484D02*
X201872438Y-41192722D01*
X201872438Y-41192722D02*
X201920057Y-41240341D01*
X201920057Y-41240341D02*
X202015295Y-41287960D01*
X202015295Y-41287960D02*
X202205771Y-41335579D01*
X202205771Y-41335579D02*
X202443866Y-41335579D01*
X202443866Y-41335579D02*
X202634342Y-41287960D01*
X202634342Y-41287960D02*
X202729580Y-41240341D01*
X202729580Y-41240341D02*
X202777200Y-41192722D01*
X202777200Y-41192722D02*
X202824819Y-41097484D01*
X202824819Y-41097484D02*
X202824819Y-41002246D01*
X202824819Y-41002246D02*
X202777200Y-40907008D01*
X202777200Y-40907008D02*
X202729580Y-40859389D01*
X202729580Y-40859389D02*
X202634342Y-40811770D01*
X202634342Y-40811770D02*
X202443866Y-40764151D01*
X202443866Y-40764151D02*
X202205771Y-40764151D01*
X202205771Y-40764151D02*
X202015295Y-40811770D01*
X202015295Y-40811770D02*
X201920057Y-40859389D01*
X201920057Y-40859389D02*
X201872438Y-40907008D01*
X201872438Y-40907008D02*
X201824819Y-41002246D01*
X201824819Y-41954627D02*
X201824819Y-42049865D01*
X201824819Y-42049865D02*
X201872438Y-42145103D01*
X201872438Y-42145103D02*
X201920057Y-42192722D01*
X201920057Y-42192722D02*
X202015295Y-42240341D01*
X202015295Y-42240341D02*
X202205771Y-42287960D01*
X202205771Y-42287960D02*
X202443866Y-42287960D01*
X202443866Y-42287960D02*
X202634342Y-42240341D01*
X202634342Y-42240341D02*
X202729580Y-42192722D01*
X202729580Y-42192722D02*
X202777200Y-42145103D01*
X202777200Y-42145103D02*
X202824819Y-42049865D01*
X202824819Y-42049865D02*
X202824819Y-41954627D01*
X202824819Y-41954627D02*
X202777200Y-41859389D01*
X202777200Y-41859389D02*
X202729580Y-41811770D01*
X202729580Y-41811770D02*
X202634342Y-41764151D01*
X202634342Y-41764151D02*
X202443866Y-41716532D01*
X202443866Y-41716532D02*
X202205771Y-41716532D01*
X202205771Y-41716532D02*
X202015295Y-41764151D01*
X202015295Y-41764151D02*
X201920057Y-41811770D01*
X201920057Y-41811770D02*
X201872438Y-41859389D01*
X201872438Y-41859389D02*
X201824819Y-41954627D01*
X201824819Y-42621294D02*
X201824819Y-43287960D01*
X201824819Y-43287960D02*
X202824819Y-42859389D01*
X206859047Y-66542375D02*
X207430475Y-66542375D01*
X207144761Y-66542375D02*
X207144761Y-65542375D01*
X207144761Y-65542375D02*
X207239999Y-65685232D01*
X207239999Y-65685232D02*
X207335237Y-65780470D01*
X207335237Y-65780470D02*
X207430475Y-65828089D01*
X206239999Y-65542375D02*
X206144761Y-65542375D01*
X206144761Y-65542375D02*
X206049523Y-65589994D01*
X206049523Y-65589994D02*
X206001904Y-65637613D01*
X206001904Y-65637613D02*
X205954285Y-65732851D01*
X205954285Y-65732851D02*
X205906666Y-65923327D01*
X205906666Y-65923327D02*
X205906666Y-66161422D01*
X205906666Y-66161422D02*
X205954285Y-66351898D01*
X205954285Y-66351898D02*
X206001904Y-66447136D01*
X206001904Y-66447136D02*
X206049523Y-66494756D01*
X206049523Y-66494756D02*
X206144761Y-66542375D01*
X206144761Y-66542375D02*
X206239999Y-66542375D01*
X206239999Y-66542375D02*
X206335237Y-66494756D01*
X206335237Y-66494756D02*
X206382856Y-66447136D01*
X206382856Y-66447136D02*
X206430475Y-66351898D01*
X206430475Y-66351898D02*
X206478094Y-66161422D01*
X206478094Y-66161422D02*
X206478094Y-65923327D01*
X206478094Y-65923327D02*
X206430475Y-65732851D01*
X206430475Y-65732851D02*
X206382856Y-65637613D01*
X206382856Y-65637613D02*
X206335237Y-65589994D01*
X206335237Y-65589994D02*
X206239999Y-65542375D01*
X205287618Y-65542375D02*
X205192380Y-65542375D01*
X205192380Y-65542375D02*
X205097142Y-65589994D01*
X205097142Y-65589994D02*
X205049523Y-65637613D01*
X205049523Y-65637613D02*
X205001904Y-65732851D01*
X205001904Y-65732851D02*
X204954285Y-65923327D01*
X204954285Y-65923327D02*
X204954285Y-66161422D01*
X204954285Y-66161422D02*
X205001904Y-66351898D01*
X205001904Y-66351898D02*
X205049523Y-66447136D01*
X205049523Y-66447136D02*
X205097142Y-66494756D01*
X205097142Y-66494756D02*
X205192380Y-66542375D01*
X205192380Y-66542375D02*
X205287618Y-66542375D01*
X205287618Y-66542375D02*
X205382856Y-66494756D01*
X205382856Y-66494756D02*
X205430475Y-66447136D01*
X205430475Y-66447136D02*
X205478094Y-66351898D01*
X205478094Y-66351898D02*
X205525713Y-66161422D01*
X205525713Y-66161422D02*
X205525713Y-65923327D01*
X205525713Y-65923327D02*
X205478094Y-65732851D01*
X205478094Y-65732851D02*
X205430475Y-65637613D01*
X205430475Y-65637613D02*
X205382856Y-65589994D01*
X205382856Y-65589994D02*
X205287618Y-65542375D01*
X204525713Y-65875708D02*
X204525713Y-66542375D01*
X204525713Y-65970946D02*
X204478094Y-65923327D01*
X204478094Y-65923327D02*
X204382856Y-65875708D01*
X204382856Y-65875708D02*
X204239999Y-65875708D01*
X204239999Y-65875708D02*
X204144761Y-65923327D01*
X204144761Y-65923327D02*
X204097142Y-66018565D01*
X204097142Y-66018565D02*
X204097142Y-66542375D01*
X203684047Y-44904819D02*
X204255475Y-44904819D01*
X203969761Y-44904819D02*
X203969761Y-43904819D01*
X203969761Y-43904819D02*
X204064999Y-44047676D01*
X204064999Y-44047676D02*
X204160237Y-44142914D01*
X204160237Y-44142914D02*
X204255475Y-44190533D01*
X203064999Y-43904819D02*
X202969761Y-43904819D01*
X202969761Y-43904819D02*
X202874523Y-43952438D01*
X202874523Y-43952438D02*
X202826904Y-44000057D01*
X202826904Y-44000057D02*
X202779285Y-44095295D01*
X202779285Y-44095295D02*
X202731666Y-44285771D01*
X202731666Y-44285771D02*
X202731666Y-44523866D01*
X202731666Y-44523866D02*
X202779285Y-44714342D01*
X202779285Y-44714342D02*
X202826904Y-44809580D01*
X202826904Y-44809580D02*
X202874523Y-44857200D01*
X202874523Y-44857200D02*
X202969761Y-44904819D01*
X202969761Y-44904819D02*
X203064999Y-44904819D01*
X203064999Y-44904819D02*
X203160237Y-44857200D01*
X203160237Y-44857200D02*
X203207856Y-44809580D01*
X203207856Y-44809580D02*
X203255475Y-44714342D01*
X203255475Y-44714342D02*
X203303094Y-44523866D01*
X203303094Y-44523866D02*
X203303094Y-44285771D01*
X203303094Y-44285771D02*
X203255475Y-44095295D01*
X203255475Y-44095295D02*
X203207856Y-44000057D01*
X203207856Y-44000057D02*
X203160237Y-43952438D01*
X203160237Y-43952438D02*
X203064999Y-43904819D01*
X202112618Y-43904819D02*
X202017380Y-43904819D01*
X202017380Y-43904819D02*
X201922142Y-43952438D01*
X201922142Y-43952438D02*
X201874523Y-44000057D01*
X201874523Y-44000057D02*
X201826904Y-44095295D01*
X201826904Y-44095295D02*
X201779285Y-44285771D01*
X201779285Y-44285771D02*
X201779285Y-44523866D01*
X201779285Y-44523866D02*
X201826904Y-44714342D01*
X201826904Y-44714342D02*
X201874523Y-44809580D01*
X201874523Y-44809580D02*
X201922142Y-44857200D01*
X201922142Y-44857200D02*
X202017380Y-44904819D01*
X202017380Y-44904819D02*
X202112618Y-44904819D01*
X202112618Y-44904819D02*
X202207856Y-44857200D01*
X202207856Y-44857200D02*
X202255475Y-44809580D01*
X202255475Y-44809580D02*
X202303094Y-44714342D01*
X202303094Y-44714342D02*
X202350713Y-44523866D01*
X202350713Y-44523866D02*
X202350713Y-44285771D01*
X202350713Y-44285771D02*
X202303094Y-44095295D01*
X202303094Y-44095295D02*
X202255475Y-44000057D01*
X202255475Y-44000057D02*
X202207856Y-43952438D01*
X202207856Y-43952438D02*
X202112618Y-43904819D01*
X201350713Y-44238152D02*
X201350713Y-44904819D01*
X201350713Y-44333390D02*
X201303094Y-44285771D01*
X201303094Y-44285771D02*
X201207856Y-44238152D01*
X201207856Y-44238152D02*
X201064999Y-44238152D01*
X201064999Y-44238152D02*
X200969761Y-44285771D01*
X200969761Y-44285771D02*
X200922142Y-44381009D01*
X200922142Y-44381009D02*
X200922142Y-44904819D01*
X186015238Y-83004819D02*
X186586666Y-83004819D01*
X186300952Y-83004819D02*
X186300952Y-82004819D01*
X186300952Y-82004819D02*
X186396190Y-82147676D01*
X186396190Y-82147676D02*
X186491428Y-82242914D01*
X186491428Y-82242914D02*
X186586666Y-82290533D01*
X185443809Y-82433390D02*
X185539047Y-82385771D01*
X185539047Y-82385771D02*
X185586666Y-82338152D01*
X185586666Y-82338152D02*
X185634285Y-82242914D01*
X185634285Y-82242914D02*
X185634285Y-82195295D01*
X185634285Y-82195295D02*
X185586666Y-82100057D01*
X185586666Y-82100057D02*
X185539047Y-82052438D01*
X185539047Y-82052438D02*
X185443809Y-82004819D01*
X185443809Y-82004819D02*
X185253333Y-82004819D01*
X185253333Y-82004819D02*
X185158095Y-82052438D01*
X185158095Y-82052438D02*
X185110476Y-82100057D01*
X185110476Y-82100057D02*
X185062857Y-82195295D01*
X185062857Y-82195295D02*
X185062857Y-82242914D01*
X185062857Y-82242914D02*
X185110476Y-82338152D01*
X185110476Y-82338152D02*
X185158095Y-82385771D01*
X185158095Y-82385771D02*
X185253333Y-82433390D01*
X185253333Y-82433390D02*
X185443809Y-82433390D01*
X185443809Y-82433390D02*
X185539047Y-82481009D01*
X185539047Y-82481009D02*
X185586666Y-82528628D01*
X185586666Y-82528628D02*
X185634285Y-82623866D01*
X185634285Y-82623866D02*
X185634285Y-82814342D01*
X185634285Y-82814342D02*
X185586666Y-82909580D01*
X185586666Y-82909580D02*
X185539047Y-82957200D01*
X185539047Y-82957200D02*
X185443809Y-83004819D01*
X185443809Y-83004819D02*
X185253333Y-83004819D01*
X185253333Y-83004819D02*
X185158095Y-82957200D01*
X185158095Y-82957200D02*
X185110476Y-82909580D01*
X185110476Y-82909580D02*
X185062857Y-82814342D01*
X185062857Y-82814342D02*
X185062857Y-82623866D01*
X185062857Y-82623866D02*
X185110476Y-82528628D01*
X185110476Y-82528628D02*
X185158095Y-82481009D01*
X185158095Y-82481009D02*
X185253333Y-82433390D01*
X184634285Y-83004819D02*
X184634285Y-82004819D01*
X184539047Y-82623866D02*
X184253333Y-83004819D01*
X184253333Y-82338152D02*
X184634285Y-82719104D01*
X123644819Y-52585952D02*
X123644819Y-52014524D01*
X123644819Y-52300238D02*
X122644819Y-52300238D01*
X122644819Y-52300238D02*
X122787676Y-52205000D01*
X122787676Y-52205000D02*
X122882914Y-52109762D01*
X122882914Y-52109762D02*
X122930533Y-52014524D01*
X123644819Y-53014524D02*
X122644819Y-53014524D01*
X123263866Y-53109762D02*
X123644819Y-53395476D01*
X122978152Y-53395476D02*
X123359104Y-53014524D01*
X203654819Y-50680952D02*
X203654819Y-50109524D01*
X203654819Y-50395238D02*
X202654819Y-50395238D01*
X202654819Y-50395238D02*
X202797676Y-50300000D01*
X202797676Y-50300000D02*
X202892914Y-50204762D01*
X202892914Y-50204762D02*
X202940533Y-50109524D01*
X203654819Y-51109524D02*
X202654819Y-51109524D01*
X203273866Y-51204762D02*
X203654819Y-51490476D01*
X202988152Y-51490476D02*
X203369104Y-51109524D01*
X191261904Y-82004819D02*
X191166666Y-82004819D01*
X191166666Y-82004819D02*
X191071428Y-82052438D01*
X191071428Y-82052438D02*
X191023809Y-82100057D01*
X191023809Y-82100057D02*
X190976190Y-82195295D01*
X190976190Y-82195295D02*
X190928571Y-82385771D01*
X190928571Y-82385771D02*
X190928571Y-82623866D01*
X190928571Y-82623866D02*
X190976190Y-82814342D01*
X190976190Y-82814342D02*
X191023809Y-82909580D01*
X191023809Y-82909580D02*
X191071428Y-82957200D01*
X191071428Y-82957200D02*
X191166666Y-83004819D01*
X191166666Y-83004819D02*
X191261904Y-83004819D01*
X191261904Y-83004819D02*
X191357142Y-82957200D01*
X191357142Y-82957200D02*
X191404761Y-82909580D01*
X191404761Y-82909580D02*
X191452380Y-82814342D01*
X191452380Y-82814342D02*
X191499999Y-82623866D01*
X191499999Y-82623866D02*
X191499999Y-82385771D01*
X191499999Y-82385771D02*
X191452380Y-82195295D01*
X191452380Y-82195295D02*
X191404761Y-82100057D01*
X191404761Y-82100057D02*
X191357142Y-82052438D01*
X191357142Y-82052438D02*
X191261904Y-82004819D01*
X190452380Y-82957200D02*
X190452380Y-83004819D01*
X190452380Y-83004819D02*
X190499999Y-83100057D01*
X190499999Y-83100057D02*
X190547618Y-83147676D01*
X190071428Y-82100057D02*
X190023809Y-82052438D01*
X190023809Y-82052438D02*
X189928571Y-82004819D01*
X189928571Y-82004819D02*
X189690476Y-82004819D01*
X189690476Y-82004819D02*
X189595238Y-82052438D01*
X189595238Y-82052438D02*
X189547619Y-82100057D01*
X189547619Y-82100057D02*
X189500000Y-82195295D01*
X189500000Y-82195295D02*
X189500000Y-82290533D01*
X189500000Y-82290533D02*
X189547619Y-82433390D01*
X189547619Y-82433390D02*
X190119047Y-83004819D01*
X190119047Y-83004819D02*
X189500000Y-83004819D01*
X143964819Y-88233333D02*
X143964819Y-87661905D01*
X143964819Y-87947619D02*
X142964819Y-87947619D01*
X142964819Y-87947619D02*
X143107676Y-87852381D01*
X143107676Y-87852381D02*
X143202914Y-87757143D01*
X143202914Y-87757143D02*
X143250533Y-87661905D01*
X142964819Y-88852381D02*
X142964819Y-88947619D01*
X142964819Y-88947619D02*
X143012438Y-89042857D01*
X143012438Y-89042857D02*
X143060057Y-89090476D01*
X143060057Y-89090476D02*
X143155295Y-89138095D01*
X143155295Y-89138095D02*
X143345771Y-89185714D01*
X143345771Y-89185714D02*
X143583866Y-89185714D01*
X143583866Y-89185714D02*
X143774342Y-89138095D01*
X143774342Y-89138095D02*
X143869580Y-89090476D01*
X143869580Y-89090476D02*
X143917200Y-89042857D01*
X143917200Y-89042857D02*
X143964819Y-88947619D01*
X143964819Y-88947619D02*
X143964819Y-88852381D01*
X143964819Y-88852381D02*
X143917200Y-88757143D01*
X143917200Y-88757143D02*
X143869580Y-88709524D01*
X143869580Y-88709524D02*
X143774342Y-88661905D01*
X143774342Y-88661905D02*
X143583866Y-88614286D01*
X143583866Y-88614286D02*
X143345771Y-88614286D01*
X143345771Y-88614286D02*
X143155295Y-88661905D01*
X143155295Y-88661905D02*
X143060057Y-88709524D01*
X143060057Y-88709524D02*
X143012438Y-88757143D01*
X143012438Y-88757143D02*
X142964819Y-88852381D01*
X142964819Y-89804762D02*
X142964819Y-89900000D01*
X142964819Y-89900000D02*
X143012438Y-89995238D01*
X143012438Y-89995238D02*
X143060057Y-90042857D01*
X143060057Y-90042857D02*
X143155295Y-90090476D01*
X143155295Y-90090476D02*
X143345771Y-90138095D01*
X143345771Y-90138095D02*
X143583866Y-90138095D01*
X143583866Y-90138095D02*
X143774342Y-90090476D01*
X143774342Y-90090476D02*
X143869580Y-90042857D01*
X143869580Y-90042857D02*
X143917200Y-89995238D01*
X143917200Y-89995238D02*
X143964819Y-89900000D01*
X143964819Y-89900000D02*
X143964819Y-89804762D01*
X143964819Y-89804762D02*
X143917200Y-89709524D01*
X143917200Y-89709524D02*
X143869580Y-89661905D01*
X143869580Y-89661905D02*
X143774342Y-89614286D01*
X143774342Y-89614286D02*
X143583866Y-89566667D01*
X143583866Y-89566667D02*
X143345771Y-89566667D01*
X143345771Y-89566667D02*
X143155295Y-89614286D01*
X143155295Y-89614286D02*
X143060057Y-89661905D01*
X143060057Y-89661905D02*
X143012438Y-89709524D01*
X143012438Y-89709524D02*
X142964819Y-89804762D01*
X127484047Y-70304819D02*
X128055475Y-70304819D01*
X127769761Y-70304819D02*
X127769761Y-69304819D01*
X127769761Y-69304819D02*
X127864999Y-69447676D01*
X127864999Y-69447676D02*
X127960237Y-69542914D01*
X127960237Y-69542914D02*
X128055475Y-69590533D01*
X126864999Y-69304819D02*
X126769761Y-69304819D01*
X126769761Y-69304819D02*
X126674523Y-69352438D01*
X126674523Y-69352438D02*
X126626904Y-69400057D01*
X126626904Y-69400057D02*
X126579285Y-69495295D01*
X126579285Y-69495295D02*
X126531666Y-69685771D01*
X126531666Y-69685771D02*
X126531666Y-69923866D01*
X126531666Y-69923866D02*
X126579285Y-70114342D01*
X126579285Y-70114342D02*
X126626904Y-70209580D01*
X126626904Y-70209580D02*
X126674523Y-70257200D01*
X126674523Y-70257200D02*
X126769761Y-70304819D01*
X126769761Y-70304819D02*
X126864999Y-70304819D01*
X126864999Y-70304819D02*
X126960237Y-70257200D01*
X126960237Y-70257200D02*
X127007856Y-70209580D01*
X127007856Y-70209580D02*
X127055475Y-70114342D01*
X127055475Y-70114342D02*
X127103094Y-69923866D01*
X127103094Y-69923866D02*
X127103094Y-69685771D01*
X127103094Y-69685771D02*
X127055475Y-69495295D01*
X127055475Y-69495295D02*
X127007856Y-69400057D01*
X127007856Y-69400057D02*
X126960237Y-69352438D01*
X126960237Y-69352438D02*
X126864999Y-69304819D01*
X125912618Y-69304819D02*
X125817380Y-69304819D01*
X125817380Y-69304819D02*
X125722142Y-69352438D01*
X125722142Y-69352438D02*
X125674523Y-69400057D01*
X125674523Y-69400057D02*
X125626904Y-69495295D01*
X125626904Y-69495295D02*
X125579285Y-69685771D01*
X125579285Y-69685771D02*
X125579285Y-69923866D01*
X125579285Y-69923866D02*
X125626904Y-70114342D01*
X125626904Y-70114342D02*
X125674523Y-70209580D01*
X125674523Y-70209580D02*
X125722142Y-70257200D01*
X125722142Y-70257200D02*
X125817380Y-70304819D01*
X125817380Y-70304819D02*
X125912618Y-70304819D01*
X125912618Y-70304819D02*
X126007856Y-70257200D01*
X126007856Y-70257200D02*
X126055475Y-70209580D01*
X126055475Y-70209580D02*
X126103094Y-70114342D01*
X126103094Y-70114342D02*
X126150713Y-69923866D01*
X126150713Y-69923866D02*
X126150713Y-69685771D01*
X126150713Y-69685771D02*
X126103094Y-69495295D01*
X126103094Y-69495295D02*
X126055475Y-69400057D01*
X126055475Y-69400057D02*
X126007856Y-69352438D01*
X126007856Y-69352438D02*
X125912618Y-69304819D01*
X125150713Y-69638152D02*
X125150713Y-70304819D01*
X125150713Y-69733390D02*
X125103094Y-69685771D01*
X125103094Y-69685771D02*
X125007856Y-69638152D01*
X125007856Y-69638152D02*
X124864999Y-69638152D01*
X124864999Y-69638152D02*
X124769761Y-69685771D01*
X124769761Y-69685771D02*
X124722142Y-69781009D01*
X124722142Y-69781009D02*
X124722142Y-70304819D01*
X192349285Y-84243152D02*
X192349285Y-84909819D01*
X192587380Y-83862200D02*
X192825475Y-84576485D01*
X192825475Y-84576485D02*
X192206428Y-84576485D01*
X191920713Y-83909819D02*
X191254047Y-83909819D01*
X191254047Y-83909819D02*
X191682618Y-84909819D01*
X190682618Y-83909819D02*
X190587380Y-83909819D01*
X190587380Y-83909819D02*
X190492142Y-83957438D01*
X190492142Y-83957438D02*
X190444523Y-84005057D01*
X190444523Y-84005057D02*
X190396904Y-84100295D01*
X190396904Y-84100295D02*
X190349285Y-84290771D01*
X190349285Y-84290771D02*
X190349285Y-84528866D01*
X190349285Y-84528866D02*
X190396904Y-84719342D01*
X190396904Y-84719342D02*
X190444523Y-84814580D01*
X190444523Y-84814580D02*
X190492142Y-84862200D01*
X190492142Y-84862200D02*
X190587380Y-84909819D01*
X190587380Y-84909819D02*
X190682618Y-84909819D01*
X190682618Y-84909819D02*
X190777856Y-84862200D01*
X190777856Y-84862200D02*
X190825475Y-84814580D01*
X190825475Y-84814580D02*
X190873094Y-84719342D01*
X190873094Y-84719342D02*
X190920713Y-84528866D01*
X190920713Y-84528866D02*
X190920713Y-84290771D01*
X190920713Y-84290771D02*
X190873094Y-84100295D01*
X190873094Y-84100295D02*
X190825475Y-84005057D01*
X190825475Y-84005057D02*
X190777856Y-83957438D01*
X190777856Y-83957438D02*
X190682618Y-83909819D01*
X189920713Y-84243152D02*
X189920713Y-85243152D01*
X189920713Y-84290771D02*
X189825475Y-84243152D01*
X189825475Y-84243152D02*
X189634999Y-84243152D01*
X189634999Y-84243152D02*
X189539761Y-84290771D01*
X189539761Y-84290771D02*
X189492142Y-84338390D01*
X189492142Y-84338390D02*
X189444523Y-84433628D01*
X189444523Y-84433628D02*
X189444523Y-84719342D01*
X189444523Y-84719342D02*
X189492142Y-84814580D01*
X189492142Y-84814580D02*
X189539761Y-84862200D01*
X189539761Y-84862200D02*
X189634999Y-84909819D01*
X189634999Y-84909819D02*
X189825475Y-84909819D01*
X189825475Y-84909819D02*
X189920713Y-84862200D01*
X134222857Y-85544819D02*
X134794285Y-85544819D01*
X134508571Y-85544819D02*
X134508571Y-84544819D01*
X134508571Y-84544819D02*
X134603809Y-84687676D01*
X134603809Y-84687676D02*
X134699047Y-84782914D01*
X134699047Y-84782914D02*
X134794285Y-84830533D01*
X133794285Y-85544819D02*
X133794285Y-84544819D01*
X133794285Y-84544819D02*
X133222857Y-85544819D01*
X133222857Y-85544819D02*
X133222857Y-84544819D01*
X132318095Y-84878152D02*
X132318095Y-85544819D01*
X132556190Y-84497200D02*
X132794285Y-85211485D01*
X132794285Y-85211485D02*
X132175238Y-85211485D01*
X131603809Y-84544819D02*
X131508571Y-84544819D01*
X131508571Y-84544819D02*
X131413333Y-84592438D01*
X131413333Y-84592438D02*
X131365714Y-84640057D01*
X131365714Y-84640057D02*
X131318095Y-84735295D01*
X131318095Y-84735295D02*
X131270476Y-84925771D01*
X131270476Y-84925771D02*
X131270476Y-85163866D01*
X131270476Y-85163866D02*
X131318095Y-85354342D01*
X131318095Y-85354342D02*
X131365714Y-85449580D01*
X131365714Y-85449580D02*
X131413333Y-85497200D01*
X131413333Y-85497200D02*
X131508571Y-85544819D01*
X131508571Y-85544819D02*
X131603809Y-85544819D01*
X131603809Y-85544819D02*
X131699047Y-85497200D01*
X131699047Y-85497200D02*
X131746666Y-85449580D01*
X131746666Y-85449580D02*
X131794285Y-85354342D01*
X131794285Y-85354342D02*
X131841904Y-85163866D01*
X131841904Y-85163866D02*
X131841904Y-84925771D01*
X131841904Y-84925771D02*
X131794285Y-84735295D01*
X131794285Y-84735295D02*
X131746666Y-84640057D01*
X131746666Y-84640057D02*
X131699047Y-84592438D01*
X131699047Y-84592438D02*
X131603809Y-84544819D01*
X130651428Y-84544819D02*
X130556190Y-84544819D01*
X130556190Y-84544819D02*
X130460952Y-84592438D01*
X130460952Y-84592438D02*
X130413333Y-84640057D01*
X130413333Y-84640057D02*
X130365714Y-84735295D01*
X130365714Y-84735295D02*
X130318095Y-84925771D01*
X130318095Y-84925771D02*
X130318095Y-85163866D01*
X130318095Y-85163866D02*
X130365714Y-85354342D01*
X130365714Y-85354342D02*
X130413333Y-85449580D01*
X130413333Y-85449580D02*
X130460952Y-85497200D01*
X130460952Y-85497200D02*
X130556190Y-85544819D01*
X130556190Y-85544819D02*
X130651428Y-85544819D01*
X130651428Y-85544819D02*
X130746666Y-85497200D01*
X130746666Y-85497200D02*
X130794285Y-85449580D01*
X130794285Y-85449580D02*
X130841904Y-85354342D01*
X130841904Y-85354342D02*
X130889523Y-85163866D01*
X130889523Y-85163866D02*
X130889523Y-84925771D01*
X130889523Y-84925771D02*
X130841904Y-84735295D01*
X130841904Y-84735295D02*
X130794285Y-84640057D01*
X130794285Y-84640057D02*
X130746666Y-84592438D01*
X130746666Y-84592438D02*
X130651428Y-84544819D01*
X129984761Y-84544819D02*
X129318095Y-84544819D01*
X129318095Y-84544819D02*
X129746666Y-85544819D01*
X186110475Y-84005057D02*
X186062856Y-83957438D01*
X186062856Y-83957438D02*
X185967618Y-83909819D01*
X185967618Y-83909819D02*
X185729523Y-83909819D01*
X185729523Y-83909819D02*
X185634285Y-83957438D01*
X185634285Y-83957438D02*
X185586666Y-84005057D01*
X185586666Y-84005057D02*
X185539047Y-84100295D01*
X185539047Y-84100295D02*
X185539047Y-84195533D01*
X185539047Y-84195533D02*
X185586666Y-84338390D01*
X185586666Y-84338390D02*
X186158094Y-84909819D01*
X186158094Y-84909819D02*
X185539047Y-84909819D01*
X185110475Y-84909819D02*
X185110475Y-83909819D01*
X185015237Y-84528866D02*
X184729523Y-84909819D01*
X184729523Y-84243152D02*
X185110475Y-84624104D01*
X121134047Y-70304819D02*
X121705475Y-70304819D01*
X121419761Y-70304819D02*
X121419761Y-69304819D01*
X121419761Y-69304819D02*
X121514999Y-69447676D01*
X121514999Y-69447676D02*
X121610237Y-69542914D01*
X121610237Y-69542914D02*
X121705475Y-69590533D01*
X120514999Y-69304819D02*
X120419761Y-69304819D01*
X120419761Y-69304819D02*
X120324523Y-69352438D01*
X120324523Y-69352438D02*
X120276904Y-69400057D01*
X120276904Y-69400057D02*
X120229285Y-69495295D01*
X120229285Y-69495295D02*
X120181666Y-69685771D01*
X120181666Y-69685771D02*
X120181666Y-69923866D01*
X120181666Y-69923866D02*
X120229285Y-70114342D01*
X120229285Y-70114342D02*
X120276904Y-70209580D01*
X120276904Y-70209580D02*
X120324523Y-70257200D01*
X120324523Y-70257200D02*
X120419761Y-70304819D01*
X120419761Y-70304819D02*
X120514999Y-70304819D01*
X120514999Y-70304819D02*
X120610237Y-70257200D01*
X120610237Y-70257200D02*
X120657856Y-70209580D01*
X120657856Y-70209580D02*
X120705475Y-70114342D01*
X120705475Y-70114342D02*
X120753094Y-69923866D01*
X120753094Y-69923866D02*
X120753094Y-69685771D01*
X120753094Y-69685771D02*
X120705475Y-69495295D01*
X120705475Y-69495295D02*
X120657856Y-69400057D01*
X120657856Y-69400057D02*
X120610237Y-69352438D01*
X120610237Y-69352438D02*
X120514999Y-69304819D01*
X119562618Y-69304819D02*
X119467380Y-69304819D01*
X119467380Y-69304819D02*
X119372142Y-69352438D01*
X119372142Y-69352438D02*
X119324523Y-69400057D01*
X119324523Y-69400057D02*
X119276904Y-69495295D01*
X119276904Y-69495295D02*
X119229285Y-69685771D01*
X119229285Y-69685771D02*
X119229285Y-69923866D01*
X119229285Y-69923866D02*
X119276904Y-70114342D01*
X119276904Y-70114342D02*
X119324523Y-70209580D01*
X119324523Y-70209580D02*
X119372142Y-70257200D01*
X119372142Y-70257200D02*
X119467380Y-70304819D01*
X119467380Y-70304819D02*
X119562618Y-70304819D01*
X119562618Y-70304819D02*
X119657856Y-70257200D01*
X119657856Y-70257200D02*
X119705475Y-70209580D01*
X119705475Y-70209580D02*
X119753094Y-70114342D01*
X119753094Y-70114342D02*
X119800713Y-69923866D01*
X119800713Y-69923866D02*
X119800713Y-69685771D01*
X119800713Y-69685771D02*
X119753094Y-69495295D01*
X119753094Y-69495295D02*
X119705475Y-69400057D01*
X119705475Y-69400057D02*
X119657856Y-69352438D01*
X119657856Y-69352438D02*
X119562618Y-69304819D01*
X118800713Y-69638152D02*
X118800713Y-70304819D01*
X118800713Y-69733390D02*
X118753094Y-69685771D01*
X118753094Y-69685771D02*
X118657856Y-69638152D01*
X118657856Y-69638152D02*
X118514999Y-69638152D01*
X118514999Y-69638152D02*
X118419761Y-69685771D01*
X118419761Y-69685771D02*
X118372142Y-69781009D01*
X118372142Y-69781009D02*
X118372142Y-70304819D01*
X129621547Y-50784619D02*
X130192975Y-50784619D01*
X129907261Y-50784619D02*
X129907261Y-49784619D01*
X129907261Y-49784619D02*
X130002499Y-49927476D01*
X130002499Y-49927476D02*
X130097737Y-50022714D01*
X130097737Y-50022714D02*
X130192975Y-50070333D01*
X129002499Y-49784619D02*
X128907261Y-49784619D01*
X128907261Y-49784619D02*
X128812023Y-49832238D01*
X128812023Y-49832238D02*
X128764404Y-49879857D01*
X128764404Y-49879857D02*
X128716785Y-49975095D01*
X128716785Y-49975095D02*
X128669166Y-50165571D01*
X128669166Y-50165571D02*
X128669166Y-50403666D01*
X128669166Y-50403666D02*
X128716785Y-50594142D01*
X128716785Y-50594142D02*
X128764404Y-50689380D01*
X128764404Y-50689380D02*
X128812023Y-50737000D01*
X128812023Y-50737000D02*
X128907261Y-50784619D01*
X128907261Y-50784619D02*
X129002499Y-50784619D01*
X129002499Y-50784619D02*
X129097737Y-50737000D01*
X129097737Y-50737000D02*
X129145356Y-50689380D01*
X129145356Y-50689380D02*
X129192975Y-50594142D01*
X129192975Y-50594142D02*
X129240594Y-50403666D01*
X129240594Y-50403666D02*
X129240594Y-50165571D01*
X129240594Y-50165571D02*
X129192975Y-49975095D01*
X129192975Y-49975095D02*
X129145356Y-49879857D01*
X129145356Y-49879857D02*
X129097737Y-49832238D01*
X129097737Y-49832238D02*
X129002499Y-49784619D01*
X128050118Y-49784619D02*
X127954880Y-49784619D01*
X127954880Y-49784619D02*
X127859642Y-49832238D01*
X127859642Y-49832238D02*
X127812023Y-49879857D01*
X127812023Y-49879857D02*
X127764404Y-49975095D01*
X127764404Y-49975095D02*
X127716785Y-50165571D01*
X127716785Y-50165571D02*
X127716785Y-50403666D01*
X127716785Y-50403666D02*
X127764404Y-50594142D01*
X127764404Y-50594142D02*
X127812023Y-50689380D01*
X127812023Y-50689380D02*
X127859642Y-50737000D01*
X127859642Y-50737000D02*
X127954880Y-50784619D01*
X127954880Y-50784619D02*
X128050118Y-50784619D01*
X128050118Y-50784619D02*
X128145356Y-50737000D01*
X128145356Y-50737000D02*
X128192975Y-50689380D01*
X128192975Y-50689380D02*
X128240594Y-50594142D01*
X128240594Y-50594142D02*
X128288213Y-50403666D01*
X128288213Y-50403666D02*
X128288213Y-50165571D01*
X128288213Y-50165571D02*
X128240594Y-49975095D01*
X128240594Y-49975095D02*
X128192975Y-49879857D01*
X128192975Y-49879857D02*
X128145356Y-49832238D01*
X128145356Y-49832238D02*
X128050118Y-49784619D01*
X127288213Y-50117952D02*
X127288213Y-50784619D01*
X127288213Y-50213190D02*
X127240594Y-50165571D01*
X127240594Y-50165571D02*
X127145356Y-50117952D01*
X127145356Y-50117952D02*
X127002499Y-50117952D01*
X127002499Y-50117952D02*
X126907261Y-50165571D01*
X126907261Y-50165571D02*
X126859642Y-50260809D01*
X126859642Y-50260809D02*
X126859642Y-50784619D01*
X129389047Y-49349819D02*
X129960475Y-49349819D01*
X129674761Y-49349819D02*
X129674761Y-48349819D01*
X129674761Y-48349819D02*
X129769999Y-48492676D01*
X129769999Y-48492676D02*
X129865237Y-48587914D01*
X129865237Y-48587914D02*
X129960475Y-48635533D01*
X128769999Y-48349819D02*
X128674761Y-48349819D01*
X128674761Y-48349819D02*
X128579523Y-48397438D01*
X128579523Y-48397438D02*
X128531904Y-48445057D01*
X128531904Y-48445057D02*
X128484285Y-48540295D01*
X128484285Y-48540295D02*
X128436666Y-48730771D01*
X128436666Y-48730771D02*
X128436666Y-48968866D01*
X128436666Y-48968866D02*
X128484285Y-49159342D01*
X128484285Y-49159342D02*
X128531904Y-49254580D01*
X128531904Y-49254580D02*
X128579523Y-49302200D01*
X128579523Y-49302200D02*
X128674761Y-49349819D01*
X128674761Y-49349819D02*
X128769999Y-49349819D01*
X128769999Y-49349819D02*
X128865237Y-49302200D01*
X128865237Y-49302200D02*
X128912856Y-49254580D01*
X128912856Y-49254580D02*
X128960475Y-49159342D01*
X128960475Y-49159342D02*
X129008094Y-48968866D01*
X129008094Y-48968866D02*
X129008094Y-48730771D01*
X129008094Y-48730771D02*
X128960475Y-48540295D01*
X128960475Y-48540295D02*
X128912856Y-48445057D01*
X128912856Y-48445057D02*
X128865237Y-48397438D01*
X128865237Y-48397438D02*
X128769999Y-48349819D01*
X127817618Y-48349819D02*
X127722380Y-48349819D01*
X127722380Y-48349819D02*
X127627142Y-48397438D01*
X127627142Y-48397438D02*
X127579523Y-48445057D01*
X127579523Y-48445057D02*
X127531904Y-48540295D01*
X127531904Y-48540295D02*
X127484285Y-48730771D01*
X127484285Y-48730771D02*
X127484285Y-48968866D01*
X127484285Y-48968866D02*
X127531904Y-49159342D01*
X127531904Y-49159342D02*
X127579523Y-49254580D01*
X127579523Y-49254580D02*
X127627142Y-49302200D01*
X127627142Y-49302200D02*
X127722380Y-49349819D01*
X127722380Y-49349819D02*
X127817618Y-49349819D01*
X127817618Y-49349819D02*
X127912856Y-49302200D01*
X127912856Y-49302200D02*
X127960475Y-49254580D01*
X127960475Y-49254580D02*
X128008094Y-49159342D01*
X128008094Y-49159342D02*
X128055713Y-48968866D01*
X128055713Y-48968866D02*
X128055713Y-48730771D01*
X128055713Y-48730771D02*
X128008094Y-48540295D01*
X128008094Y-48540295D02*
X127960475Y-48445057D01*
X127960475Y-48445057D02*
X127912856Y-48397438D01*
X127912856Y-48397438D02*
X127817618Y-48349819D01*
X127055713Y-48683152D02*
X127055713Y-49349819D01*
X127055713Y-48778390D02*
X127008094Y-48730771D01*
X127008094Y-48730771D02*
X126912856Y-48683152D01*
X126912856Y-48683152D02*
X126769999Y-48683152D01*
X126769999Y-48683152D02*
X126674761Y-48730771D01*
X126674761Y-48730771D02*
X126627142Y-48826009D01*
X126627142Y-48826009D02*
X126627142Y-49349819D01*
X206574819Y-34144389D02*
X206574819Y-33572961D01*
X206574819Y-33858675D02*
X205574819Y-33858675D01*
X205574819Y-33858675D02*
X205717676Y-33763437D01*
X205717676Y-33763437D02*
X205812914Y-33668199D01*
X205812914Y-33668199D02*
X205860533Y-33572961D01*
X205574819Y-34763437D02*
X205574819Y-34858675D01*
X205574819Y-34858675D02*
X205622438Y-34953913D01*
X205622438Y-34953913D02*
X205670057Y-35001532D01*
X205670057Y-35001532D02*
X205765295Y-35049151D01*
X205765295Y-35049151D02*
X205955771Y-35096770D01*
X205955771Y-35096770D02*
X206193866Y-35096770D01*
X206193866Y-35096770D02*
X206384342Y-35049151D01*
X206384342Y-35049151D02*
X206479580Y-35001532D01*
X206479580Y-35001532D02*
X206527200Y-34953913D01*
X206527200Y-34953913D02*
X206574819Y-34858675D01*
X206574819Y-34858675D02*
X206574819Y-34763437D01*
X206574819Y-34763437D02*
X206527200Y-34668199D01*
X206527200Y-34668199D02*
X206479580Y-34620580D01*
X206479580Y-34620580D02*
X206384342Y-34572961D01*
X206384342Y-34572961D02*
X206193866Y-34525342D01*
X206193866Y-34525342D02*
X205955771Y-34525342D01*
X205955771Y-34525342D02*
X205765295Y-34572961D01*
X205765295Y-34572961D02*
X205670057Y-34620580D01*
X205670057Y-34620580D02*
X205622438Y-34668199D01*
X205622438Y-34668199D02*
X205574819Y-34763437D01*
X205574819Y-35715818D02*
X205574819Y-35811056D01*
X205574819Y-35811056D02*
X205622438Y-35906294D01*
X205622438Y-35906294D02*
X205670057Y-35953913D01*
X205670057Y-35953913D02*
X205765295Y-36001532D01*
X205765295Y-36001532D02*
X205955771Y-36049151D01*
X205955771Y-36049151D02*
X206193866Y-36049151D01*
X206193866Y-36049151D02*
X206384342Y-36001532D01*
X206384342Y-36001532D02*
X206479580Y-35953913D01*
X206479580Y-35953913D02*
X206527200Y-35906294D01*
X206527200Y-35906294D02*
X206574819Y-35811056D01*
X206574819Y-35811056D02*
X206574819Y-35715818D01*
X206574819Y-35715818D02*
X206527200Y-35620580D01*
X206527200Y-35620580D02*
X206479580Y-35572961D01*
X206479580Y-35572961D02*
X206384342Y-35525342D01*
X206384342Y-35525342D02*
X206193866Y-35477723D01*
X206193866Y-35477723D02*
X205955771Y-35477723D01*
X205955771Y-35477723D02*
X205765295Y-35525342D01*
X205765295Y-35525342D02*
X205670057Y-35572961D01*
X205670057Y-35572961D02*
X205622438Y-35620580D01*
X205622438Y-35620580D02*
X205574819Y-35715818D01*
X123644819Y-42425952D02*
X123644819Y-41854524D01*
X123644819Y-42140238D02*
X122644819Y-42140238D01*
X122644819Y-42140238D02*
X122787676Y-42045000D01*
X122787676Y-42045000D02*
X122882914Y-41949762D01*
X122882914Y-41949762D02*
X122930533Y-41854524D01*
X123644819Y-42854524D02*
X122644819Y-42854524D01*
X123263866Y-42949762D02*
X123644819Y-43235476D01*
X122978152Y-43235476D02*
X123359104Y-42854524D01*
D11*
%TO.C,R5*%
X199290000Y-72439620D02*
X199290000Y-71985492D01*
X200760000Y-72439620D02*
X200760000Y-71985492D01*
%TO.C,C21*%
X117978752Y-46194800D02*
X117456248Y-46194800D01*
X117978752Y-47664800D02*
X117456248Y-47664800D01*
%TO.C,C24*%
X131345000Y-79748748D02*
X131345000Y-80271252D01*
X132815000Y-79748748D02*
X132815000Y-80271252D01*
%TO.C,Q6*%
X138755000Y-86425000D02*
X138755000Y-84965000D01*
X139685000Y-84965000D02*
X138755000Y-84965000D01*
X140985000Y-84965000D02*
X141915000Y-84965000D01*
X141915000Y-84965000D02*
X141915000Y-85765000D01*
X141915000Y-86565000D02*
X141915000Y-85765000D01*
X142275000Y-87305000D02*
X141945000Y-87065000D01*
X142275000Y-86825000D01*
X142275000Y-87305000D01*
G36*
X142275000Y-87305000D02*
G01*
X141945000Y-87065000D01*
X142275000Y-86825000D01*
X142275000Y-87305000D01*
G37*
%TO.C,R36*%
X134892064Y-94175000D02*
X130537936Y-94175000D01*
X134892064Y-97595000D02*
X130537936Y-97595000D01*
%TO.C,R9*%
X197377500Y-61825492D02*
X197377500Y-62279620D01*
X198847500Y-61825492D02*
X198847500Y-62279620D01*
%TO.C,C20*%
X116708752Y-51274800D02*
X116186248Y-51274800D01*
X116708752Y-52744800D02*
X116186248Y-52744800D01*
%TO.C,R35*%
X134892064Y-89730000D02*
X130537936Y-89730000D01*
X134892064Y-93150000D02*
X130537936Y-93150000D01*
%TO.C,D3*%
X203462500Y-59767556D02*
X203462500Y-63627556D01*
X203462500Y-63627556D02*
X205462500Y-63627556D01*
X205462500Y-59767556D02*
X205462500Y-63627556D01*
%TO.C,D4*%
X203470000Y-38876056D02*
X203470000Y-42736056D01*
X203470000Y-42736056D02*
X205470000Y-42736056D01*
X205470000Y-38876056D02*
X205470000Y-42736056D01*
%TO.C,C10*%
X206001252Y-67032556D02*
X205478748Y-67032556D01*
X206001252Y-68502556D02*
X205478748Y-68502556D01*
%TO.C,C9*%
X206113748Y-44172556D02*
X206636252Y-44172556D01*
X206113748Y-45642556D02*
X206636252Y-45642556D01*
%TO.C,R3*%
X177392064Y-84345000D02*
X176937936Y-84345000D01*
X177392064Y-85815000D02*
X176937936Y-85815000D01*
%TO.C,D5*%
X200295000Y-33161056D02*
X200295000Y-37021056D01*
X200295000Y-37021056D02*
X202295000Y-37021056D01*
X202295000Y-33161056D02*
X202295000Y-37021056D01*
%TO.C,R37*%
X122357300Y-49757064D02*
X122357300Y-49302936D01*
X123827300Y-49757064D02*
X123827300Y-49302936D01*
%TO.C,R4*%
X204745000Y-49579620D02*
X204745000Y-49125492D01*
X206215000Y-49579620D02*
X206215000Y-49125492D01*
%TO.C,R1*%
X182462064Y-84345000D02*
X182007936Y-84345000D01*
X182462064Y-85815000D02*
X182007936Y-85815000D01*
%TO.C,R33*%
X142775000Y-85952064D02*
X142775000Y-85497936D01*
X144245000Y-85952064D02*
X144245000Y-85497936D01*
%TO.C,D6*%
X200287500Y-63067556D02*
X200287500Y-59207556D01*
X202287500Y-59207556D02*
X200287500Y-59207556D01*
X202287500Y-63067556D02*
X202287500Y-59207556D01*
%TO.C,C19*%
X126626252Y-66700000D02*
X126103748Y-66700000D01*
X126626252Y-68170000D02*
X126103748Y-68170000D01*
%TO.C,C3*%
X181338748Y-82075000D02*
X181861252Y-82075000D01*
X181338748Y-83545000D02*
X181861252Y-83545000D01*
%TO.C,D7*%
X133680000Y-81550000D02*
X133680000Y-83550000D01*
X137540000Y-81550000D02*
X133680000Y-81550000D01*
X137540000Y-83550000D02*
X133680000Y-83550000D01*
%TO.C,R2*%
X176927936Y-82075000D02*
X177382064Y-82075000D01*
X176927936Y-83545000D02*
X177382064Y-83545000D01*
%TO.C,C18*%
X120276252Y-66700000D02*
X119753748Y-66700000D01*
X120276252Y-68170000D02*
X119753748Y-68170000D01*
%TO.C,C16*%
X128763752Y-51274800D02*
X128241248Y-51274800D01*
X128763752Y-52744800D02*
X128241248Y-52744800D01*
%TO.C,C17*%
X129801252Y-46194800D02*
X129278748Y-46194800D01*
X129801252Y-47664800D02*
X129278748Y-47664800D01*
%TO.C,R8*%
X203735000Y-35038120D02*
X203735000Y-34583992D01*
X205205000Y-35038120D02*
X205205000Y-34583992D01*
%TO.C,R44*%
X122357300Y-45896264D02*
X122357300Y-45442136D01*
X123827300Y-45896264D02*
X123827300Y-45442136D01*
%TD*%
D12*
X171504887Y-72390000D03*
X174004887Y-72390000D03*
X116580000Y-69975000D03*
X116580000Y-67435000D03*
X116580000Y-64895000D03*
X155575000Y-98425000D03*
X153035000Y-98425000D03*
X150495000Y-98425000D03*
X147955000Y-98425000D03*
X132937500Y-54549800D03*
X132937500Y-52009800D03*
X132937500Y-49469800D03*
X132937500Y-46929800D03*
X125317500Y-46929800D03*
X125317500Y-49469800D03*
X125317500Y-52009800D03*
X125317500Y-54549800D03*
X172720000Y-78740000D03*
X172720000Y-81280000D03*
X172720000Y-83820000D03*
X172720000Y-60960000D03*
X172720000Y-63500000D03*
X172720000Y-66040000D03*
X154875000Y-43337500D03*
X155175000Y-46367500D03*
X160025000Y-46367500D03*
X160325000Y-43337500D03*
X148710000Y-43207500D03*
X148710000Y-45747500D03*
X148710000Y-48287500D03*
X148710000Y-50827500D03*
X148710000Y-53367500D03*
X148710000Y-55907500D03*
X148710000Y-58447500D03*
X148710000Y-60987500D03*
X148710000Y-63527500D03*
X148710000Y-66067500D03*
X148710000Y-68607500D03*
X148710000Y-71147500D03*
X148710000Y-73687500D03*
X148710000Y-76227500D03*
X148710000Y-78767500D03*
X148710000Y-81307500D03*
X148710000Y-83847500D03*
X148710000Y-86387500D03*
X148710000Y-88927500D03*
X148710000Y-91467500D03*
X166490000Y-91467500D03*
X166490000Y-88927500D03*
X166490000Y-86387500D03*
X166490000Y-83847500D03*
X166490000Y-81307500D03*
X166490000Y-78767500D03*
X166490000Y-76227500D03*
X166490000Y-73687500D03*
X166490000Y-71147500D03*
X166490000Y-68607500D03*
X166490000Y-66067500D03*
X166490000Y-63527500D03*
X166490000Y-60987500D03*
X166490000Y-58447500D03*
X166490000Y-55907500D03*
X166490000Y-53367500D03*
X166490000Y-50827500D03*
X166490000Y-48287500D03*
X166490000Y-45747500D03*
X166490000Y-43207500D03*
X183515000Y-38925000D03*
X180975000Y-55585000D03*
X183515000Y-55585000D03*
X186055000Y-55585000D03*
X208915000Y-47447556D03*
X208915000Y-49987556D03*
X208915000Y-52527556D03*
X115570000Y-35560000D03*
X115570000Y-99695000D03*
X172720000Y-54610000D03*
X172720000Y-52070000D03*
X172720000Y-49530000D03*
X187950000Y-75555000D03*
X177790000Y-75555000D03*
X124460000Y-38735000D03*
X121960000Y-38735000D03*
X201930000Y-48717556D03*
X201930000Y-46717556D03*
X202055000Y-99060000D03*
X195295000Y-99060000D03*
X185705000Y-99060000D03*
X178945000Y-99060000D03*
X125095000Y-88265000D03*
X120015000Y-93345000D03*
X125095000Y-90805000D03*
X120015000Y-83185000D03*
X207962500Y-57607556D03*
X207962500Y-60147556D03*
X207962500Y-62687556D03*
X207985000Y-36652556D03*
X207985000Y-39192556D03*
X207985000Y-41732556D03*
D13*
X197200000Y-86995000D03*
X203200000Y-86995000D03*
D14*
X200200000Y-82295000D03*
D12*
X204470000Y-75772556D03*
X204470000Y-73772556D03*
X132650113Y-41910000D03*
X130150113Y-41910000D03*
X185410000Y-80010000D03*
X182870000Y-80010000D03*
X180330000Y-80010000D03*
X177790000Y-80010000D03*
X177790000Y-87630000D03*
X180330000Y-87630000D03*
X182870000Y-87630000D03*
X185410000Y-87630000D03*
X196850000Y-40704888D03*
X196850000Y-43204888D03*
X130550000Y-69975000D03*
X130550000Y-67435000D03*
X130550000Y-64895000D03*
X180290000Y-92065000D03*
X177790000Y-92065000D03*
X120882500Y-54539800D03*
X120882500Y-51999800D03*
X120882500Y-49459800D03*
X120882500Y-46919800D03*
X113262500Y-46919800D03*
X113262500Y-49459800D03*
X113262500Y-51999800D03*
X113262500Y-54539800D03*
X172720000Y-91440000D03*
X172720000Y-88900000D03*
X207645000Y-99695000D03*
X198120000Y-56337556D03*
X198120000Y-58337556D03*
X187315000Y-68580000D03*
X182315000Y-68580000D03*
X135890000Y-79375000D03*
X141890000Y-93575000D03*
X129840000Y-81325000D03*
X141840000Y-81325000D03*
X196850000Y-34811056D03*
X196850000Y-36811056D03*
X200660000Y-67767556D03*
X200660000Y-65267556D03*
X208907500Y-68085056D03*
X208907500Y-70625056D03*
X208907500Y-73165056D03*
M02*
