M48
; DRILL file {KiCad 8.0.1} date 2024-05-10T19:46:58+0200
; FORMAT={-:-/ absolute / metric / decimal}
; #@! TF.CreationDate,2024-05-10T19:46:58+02:00
; #@! TF.GenerationSoftware,Kicad,Pcbnew,8.0.1
; #@! TF.FileFunction,MixedPlating,1,2
FMAT,2
METRIC
; #@! TA.AperFunction,Plated,PTH,ViaDrill
T1C0.300
; #@! TA.AperFunction,Plated,PTH,ComponentDrill
T2C0.800
; #@! TA.AperFunction,Plated,PTH,ComponentDrill
T3C0.890
; #@! TA.AperFunction,Plated,PTH,ComponentDrill
T4C1.000
; #@! TA.AperFunction,Plated,PTH,ComponentDrill
T5C1.100
; #@! TA.AperFunction,Plated,PTH,ComponentDrill
T6C1.300
; #@! TA.AperFunction,Plated,PTH,ComponentDrill
T7C1.700
; #@! TA.AperFunction,Plated,PTH,ComponentDrill
T8C2.010
; #@! TA.AperFunction,Plated,PTH,ComponentDrill
T9C3.200
; #@! TA.AperFunction,NonPlated,NPTH,ComponentDrill
T10C1.850
; #@! TA.AperFunction,NonPlated,NPTH,ComponentDrill
T11C2.200
; #@! TA.AperFunction,NonPlated,NPTH,ComponentDrill
T12C3.500
%
G90
G05
T1
X113.03Y-57.15
X113.03Y-58.42
X113.03Y-59.69
X113.03Y-60.96
X113.03Y-62.23
X113.03Y-63.5
X113.03Y-64.77
X113.03Y-66.04
X113.03Y-67.31
X113.03Y-68.58
X113.03Y-69.85
X113.03Y-71.12
X113.03Y-72.39
X113.03Y-73.66
X113.03Y-74.93
X113.03Y-76.2
X113.03Y-77.47
X114.3Y-77.47
X115.57Y-77.47
X116.205Y-40.64
X116.205Y-41.91
X116.205Y-48.895
X116.205Y-59.69
X116.84Y-77.47
X117.475Y-40.64
X117.475Y-41.91
X117.475Y-48.895
X117.475Y-59.69
X118.11Y-53.975
X118.11Y-77.47
X119.38Y-53.975
X119.38Y-77.47
X120.015Y-72.39
X120.65Y-65.405
X120.65Y-71.12
X120.65Y-77.47
X121.285Y-72.39
X121.92Y-59.69
X121.92Y-65.405
X121.92Y-69.85
X121.92Y-77.47
X122.555Y-60.325
X122.555Y-98.425
X122.555Y-99.695
X123.19Y-77.47
X123.825Y-69.85
X123.825Y-98.425
X123.825Y-99.695
X124.46Y-59.69
X124.46Y-65.405
X124.46Y-72.39
X124.46Y-77.47
X125.095Y-43.18
X125.095Y-44.45
X125.095Y-71.12
X125.095Y-98.425
X125.73Y-65.405
X125.73Y-72.39
X125.73Y-77.47
X126.365Y-98.425
X127.0Y-40.005
X127.0Y-77.47
X127.635Y-98.425
X128.27Y-38.735
X128.27Y-45.085
X128.27Y-53.975
X128.27Y-59.69
X128.905Y-98.425
X129.54Y-37.465
X129.54Y-45.085
X129.54Y-53.975
X129.54Y-59.69
X130.175Y-77.47
X130.175Y-78.74
X130.175Y-98.425
X131.445Y-36.195
X131.445Y-98.425
X132.715Y-98.425
X133.35Y-36.195
X133.985Y-98.425
X135.255Y-36.195
X135.255Y-39.98
X135.255Y-41.275
X135.255Y-42.52
X135.255Y-43.79
X135.255Y-45.06
X135.255Y-46.355
X135.255Y-49.53
X135.255Y-50.8
X135.255Y-52.07
X135.255Y-53.34
X135.255Y-54.61
X135.255Y-55.88
X135.255Y-57.15
X135.255Y-58.42
X135.255Y-59.69
X135.255Y-60.96
X135.255Y-62.23
X135.255Y-63.5
X135.255Y-64.77
X135.255Y-66.04
X135.255Y-67.31
X135.255Y-68.58
X135.255Y-69.85
X135.255Y-71.12
X135.255Y-72.39
X135.255Y-73.66
X135.255Y-74.93
X135.255Y-98.425
X136.525Y-40.005
X136.525Y-75.565
X136.525Y-98.425
X137.16Y-36.195
X137.795Y-40.005
X137.795Y-75.565
X137.795Y-98.425
X139.065Y-36.195
X139.065Y-40.005
X139.065Y-75.565
X139.065Y-98.425
X140.335Y-40.005
X140.335Y-47.625
X140.335Y-48.895
X140.335Y-52.07
X140.335Y-54.61
X140.335Y-57.15
X140.335Y-60.325
X140.335Y-61.595
X140.335Y-64.77
X140.335Y-67.31
X140.335Y-69.85
X140.335Y-73.025
X140.335Y-74.295
X140.335Y-98.425
X140.97Y-36.195
X141.605Y-40.005
X141.605Y-47.625
X141.605Y-48.895
X141.605Y-60.325
X141.605Y-61.595
X141.605Y-73.025
X141.605Y-89.535
X141.605Y-98.425
X142.875Y-36.195
X142.875Y-40.005
X142.875Y-47.625
X142.875Y-48.895
X142.875Y-60.325
X142.875Y-61.595
X142.875Y-73.025
X142.875Y-89.535
X142.875Y-98.425
X144.145Y-40.005
X144.145Y-47.625
X144.145Y-48.895
X144.145Y-60.325
X144.145Y-61.595
X144.145Y-73.025
X144.145Y-89.535
X144.145Y-98.425
X144.78Y-36.195
X145.415Y-40.005
X145.415Y-44.45
X145.415Y-47.625
X145.415Y-48.895
X145.415Y-52.07
X145.415Y-54.61
X145.415Y-57.15
X145.415Y-60.325
X145.415Y-61.595
X145.415Y-64.77
X145.415Y-67.31
X145.415Y-69.85
X145.415Y-73.025
X145.415Y-81.915
X145.415Y-83.185
X145.415Y-84.455
X145.415Y-85.725
X145.415Y-86.995
X145.415Y-88.265
X145.415Y-89.535
X145.415Y-90.805
X145.415Y-94.615
X145.415Y-95.885
X145.415Y-97.155
X145.415Y-98.425
X146.685Y-36.195
X146.685Y-40.005
X147.955Y-40.005
X148.59Y-36.195
X149.225Y-40.005
X150.495Y-36.195
X150.495Y-40.005
X150.495Y-41.275
X150.495Y-42.545
X150.495Y-43.815
X150.495Y-45.085
X150.495Y-46.355
X150.495Y-47.625
X150.495Y-48.895
X150.495Y-50.165
X150.495Y-51.435
X150.495Y-52.705
X150.495Y-53.975
X150.495Y-55.245
X150.495Y-56.515
X150.495Y-57.785
X150.495Y-59.055
X150.495Y-60.325
X150.495Y-61.595
X150.495Y-62.865
X150.495Y-64.135
X150.495Y-65.405
X150.495Y-66.675
X150.495Y-67.945
X150.495Y-69.215
X150.495Y-70.485
X150.495Y-71.755
X150.495Y-73.025
X150.495Y-74.295
X150.495Y-75.565
X150.495Y-76.835
X150.495Y-78.105
X150.495Y-79.375
X150.495Y-80.645
X152.4Y-36.195
X152.4Y-55.245
X152.4Y-56.515
X152.4Y-65.405
X152.4Y-66.675
X152.4Y-75.565
X152.4Y-76.835
X153.67Y-55.245
X153.67Y-56.515
X153.67Y-65.405
X153.67Y-66.675
X153.67Y-75.565
X153.67Y-76.835
X154.305Y-36.195
X156.21Y-36.195
X156.845Y-50.165
X156.845Y-51.435
X156.845Y-60.325
X156.845Y-61.595
X156.845Y-70.485
X156.845Y-71.755
X156.845Y-80.645
X156.845Y-81.915
X158.115Y-36.195
X158.75Y-50.165
X158.75Y-51.435
X158.75Y-60.325
X158.75Y-61.595
X158.75Y-70.485
X158.75Y-71.755
X158.75Y-80.645
X158.75Y-81.915
X160.02Y-36.195
X161.925Y-36.195
X161.925Y-55.245
X161.925Y-56.515
X161.925Y-65.405
X161.925Y-66.675
X161.925Y-75.565
X161.925Y-76.835
X161.925Y-85.725
X161.925Y-86.995
X161.925Y-98.425
X161.925Y-99.695
X163.195Y-55.245
X163.195Y-56.515
X163.195Y-65.405
X163.195Y-66.675
X163.195Y-75.565
X163.195Y-76.835
X163.195Y-85.725
X163.195Y-86.995
X163.195Y-98.425
X163.195Y-99.695
X163.83Y-36.195
X165.735Y-36.195
X167.64Y-36.195
X169.545Y-36.195
X170.18Y-41.91
X170.18Y-43.18
X170.18Y-68.58
X170.18Y-75.565
X170.18Y-86.36
X171.45Y-36.195
X171.45Y-68.58
X171.45Y-75.565
X171.45Y-86.36
X172.72Y-86.36
X173.355Y-36.195
X173.99Y-86.36
X173.99Y-98.425
X173.99Y-99.695
X175.26Y-36.195
X175.26Y-98.425
X175.26Y-99.695
X177.165Y-36.195
X177.165Y-60.96
X178.435Y-55.245
X178.435Y-56.515
X178.435Y-60.96
X179.07Y-36.83
X179.07Y-38.1
X179.07Y-39.37
X179.07Y-45.72
X179.07Y-46.99
X179.07Y-48.26
X179.07Y-49.53
X179.07Y-50.8
X179.695Y-84.445
X179.695Y-85.715
X180.34Y-36.83
X180.34Y-38.1
X180.34Y-39.37
X180.34Y-40.64
X180.34Y-46.99
X180.34Y-48.26
X180.34Y-49.53
X180.34Y-50.8
X180.975Y-66.04
X180.975Y-71.12
X181.61Y-41.91
X181.61Y-48.26
X181.61Y-49.53
X181.61Y-50.8
X182.245Y-66.04
X182.245Y-71.12
X182.245Y-90.17
X182.88Y-41.91
X182.88Y-43.18
X182.88Y-49.53
X182.88Y-50.8
X182.88Y-57.785
X183.515Y-66.04
X183.515Y-71.12
X183.515Y-90.17
X184.15Y-41.91
X184.15Y-43.18
X184.15Y-44.45
X184.15Y-50.8
X184.15Y-57.785
X184.785Y-90.17
X185.42Y-41.91
X185.42Y-43.18
X185.42Y-44.45
X185.42Y-45.72
X186.055Y-90.17
X186.69Y-39.37
X186.69Y-40.64
X186.69Y-41.91
X186.69Y-43.18
X186.69Y-44.45
X186.69Y-45.72
X186.69Y-46.99
X187.325Y-90.17
X187.96Y-39.37
X187.96Y-40.64
X187.96Y-41.91
X187.96Y-43.18
X187.96Y-44.45
X187.96Y-45.72
X187.96Y-46.99
X187.96Y-53.975
X187.96Y-55.245
X187.96Y-56.515
X187.96Y-79.375
X187.96Y-80.645
X187.96Y-81.915
X187.96Y-85.09
X187.96Y-86.36
X187.96Y-87.63
X187.96Y-88.9
X188.025Y-48.32
X190.5Y-46.355
X190.5Y-47.625
X191.77Y-34.29
X191.77Y-35.56
X191.77Y-46.355
X191.77Y-47.625
X193.04Y-34.29
X193.04Y-35.56
X196.215Y-48.26
X196.215Y-49.53
X196.85Y-73.025
X196.85Y-74.295
X196.85Y-75.565
X196.85Y-76.835
X196.85Y-78.105
X196.85Y-79.375
X196.85Y-80.645
X197.485Y-48.26
X197.485Y-49.53
X198.12Y-73.025
X198.12Y-74.295
X198.12Y-75.565
X198.12Y-76.835
X198.12Y-78.105
X198.755Y-49.53
X198.755Y-67.133
X198.755Y-68.403
X200.66Y-55.245
X201.93Y-44.45
X201.93Y-55.245
X203.2Y-55.245
X203.835Y-44.45
X203.835Y-80.645
X203.835Y-81.915
X203.835Y-83.185
X204.47Y-55.245
X205.105Y-80.645
X205.105Y-81.915
X205.105Y-83.185
X205.74Y-55.245
X206.375Y-80.645
X206.375Y-81.915
X206.375Y-83.185
X206.375Y-85.725
X206.375Y-86.995
X206.375Y-88.265
X207.645Y-85.725
X207.645Y-86.995
X207.645Y-88.265
X208.915Y-85.725
X208.915Y-86.995
X208.915Y-88.265
T2
X113.262Y-46.92
X113.262Y-49.46
X113.262Y-52.0
X113.262Y-54.54
X120.882Y-46.92
X120.882Y-49.46
X120.882Y-52.0
X120.882Y-54.54
X121.96Y-38.735
X124.46Y-38.735
X125.317Y-46.93
X125.317Y-49.47
X125.317Y-52.01
X125.317Y-54.55
X130.15Y-41.91
X132.65Y-41.91
X132.938Y-46.93
X132.938Y-49.47
X132.938Y-52.01
X132.938Y-54.55
X171.505Y-72.39
X174.005Y-72.39
X177.79Y-80.01
X177.79Y-87.63
X177.79Y-92.065
X180.29Y-92.065
X180.33Y-80.01
X180.33Y-87.63
X182.87Y-80.01
X182.87Y-87.63
X185.41Y-80.01
X185.41Y-87.63
X196.85Y-34.811
X196.85Y-36.811
X196.85Y-40.705
X196.85Y-43.205
X198.12Y-56.338
X198.12Y-58.338
X200.66Y-65.268
X200.66Y-67.768
X201.93Y-46.718
X201.93Y-48.718
X204.47Y-73.773
X204.47Y-75.773
T3
X125.095Y-88.265
X125.095Y-90.805
T4
X116.58Y-64.895
X116.58Y-67.435
X116.58Y-69.975
X129.84Y-81.325
X130.55Y-64.895
X130.55Y-67.435
X130.55Y-69.975
X141.84Y-81.325
X147.955Y-98.425
X148.71Y-43.207
X148.71Y-45.747
X148.71Y-48.287
X148.71Y-50.828
X148.71Y-53.367
X148.71Y-55.907
X148.71Y-58.447
X148.71Y-60.987
X148.71Y-63.527
X148.71Y-66.067
X148.71Y-68.608
X148.71Y-71.147
X148.71Y-73.688
X148.71Y-76.227
X148.71Y-78.767
X148.71Y-81.307
X148.71Y-83.847
X148.71Y-86.388
X148.71Y-88.927
X148.71Y-91.468
X150.495Y-98.425
X153.035Y-98.425
X155.575Y-98.425
X166.49Y-43.207
X166.49Y-45.747
X166.49Y-48.287
X166.49Y-50.828
X166.49Y-53.367
X166.49Y-55.907
X166.49Y-58.447
X166.49Y-60.987
X166.49Y-63.527
X166.49Y-66.067
X166.49Y-68.608
X166.49Y-71.147
X166.49Y-73.688
X166.49Y-76.227
X166.49Y-78.767
X166.49Y-81.307
X166.49Y-83.847
X166.49Y-86.388
X166.49Y-88.927
X166.49Y-91.468
X172.72Y-49.53
X172.72Y-52.07
X172.72Y-54.61
X172.72Y-60.96
X172.72Y-63.5
X172.72Y-66.04
X172.72Y-78.74
X172.72Y-81.28
X172.72Y-83.82
X172.72Y-88.9
X172.72Y-91.44
X208.907Y-68.085
X208.907Y-70.625
X208.907Y-73.165
X208.915Y-47.448
X208.915Y-49.988
X208.915Y-52.528
T5
X177.79Y-75.555
X180.975Y-55.585
X183.515Y-55.585
X186.055Y-55.585
X187.95Y-75.555
X207.962Y-57.608
X207.962Y-60.148
X207.962Y-62.688
X207.985Y-36.653
X207.985Y-39.193
X207.985Y-41.733
T6
X135.89Y-79.375
X141.89Y-93.575
X182.315Y-68.58
X187.315Y-68.58
T7
X178.945Y-99.06
X185.705Y-99.06
X195.295Y-99.06
X202.055Y-99.06
T8
X120.015Y-83.185
X120.015Y-93.345
T9
X115.57Y-35.56
X115.57Y-99.695
X207.645Y-99.695
T10
X155.175Y-46.367
X160.025Y-46.367
T11
X154.875Y-43.337
X160.325Y-43.337
T12
X183.515Y-38.925
T4
G00X197.2Y-87.995
M15
G01X197.2Y-85.995
M16
G05
G00X201.2Y-82.295
M15
G01X199.2Y-82.295
M16
G05
G00X203.2Y-87.995
M15
G01X203.2Y-85.995
M16
G05
M30
