%TF.GenerationSoftware,KiCad,Pcbnew,8.0.1*%
%TF.CreationDate,2024-05-10T21:26:46+02:00*%
%TF.ProjectId,SiganlGen,53696761-6e6c-4476-956e-2e6b69636164,rev?*%
%TF.SameCoordinates,Original*%
%TF.FileFunction,Soldermask,Top*%
%TF.FilePolarity,Negative*%
%FSLAX46Y46*%
G04 Gerber Fmt 4.6, Leading zero omitted, Abs format (unit mm)*
G04 Created by KiCad (PCBNEW 8.0.1) date 2024-05-10 21:26:46*
%MOMM*%
%LPD*%
G01*
G04 APERTURE LIST*
G04 Aperture macros list*
%AMRoundRect*
0 Rectangle with rounded corners*
0 $1 Rounding radius*
0 $2 $3 $4 $5 $6 $7 $8 $9 X,Y pos of 4 corners*
0 Add a 4 corners polygon primitive as box body*
4,1,4,$2,$3,$4,$5,$6,$7,$8,$9,$2,$3,0*
0 Add four circle primitives for the rounded corners*
1,1,$1+$1,$2,$3*
1,1,$1+$1,$4,$5*
1,1,$1+$1,$6,$7*
1,1,$1+$1,$8,$9*
0 Add four rect primitives between the rounded corners*
20,1,$1+$1,$2,$3,$4,$5,0*
20,1,$1+$1,$4,$5,$6,$7,0*
20,1,$1+$1,$6,$7,$8,$9,0*
20,1,$1+$1,$8,$9,$2,$3,0*%
%AMFreePoly0*
4,1,28,0.178017,0.779942,0.347107,0.720775,0.498792,0.625465,0.625465,0.498792,0.720775,0.347107,0.779942,0.178017,0.800000,0.000000,0.779942,-0.178017,0.720775,-0.347107,0.625465,-0.498792,0.498792,-0.625465,0.347107,-0.720775,0.178017,-0.779942,0.000000,-0.800000,-2.200000,-0.800000,-2.205014,-0.794986,-2.244504,-0.794986,-2.324698,-0.756366,-2.380194,-0.686777,-2.400000,-0.600000,
-2.400000,0.600000,-2.380194,0.686777,-2.324698,0.756366,-2.244504,0.794986,-2.205014,0.794986,-2.200000,0.800000,0.000000,0.800000,0.178017,0.779942,0.178017,0.779942,$1*%
%AMFreePoly1*
4,1,28,0.605014,0.794986,0.644504,0.794986,0.724698,0.756366,0.780194,0.686777,0.800000,0.600000,0.800000,-0.600000,0.780194,-0.686777,0.724698,-0.756366,0.644504,-0.794986,0.605014,-0.794986,0.600000,-0.800000,0.000000,-0.800000,-0.178017,-0.779942,-0.347107,-0.720775,-0.498792,-0.625465,-0.625465,-0.498792,-0.720775,-0.347107,-0.779942,-0.178017,-0.800000,0.000000,-0.779942,0.178017,
-0.720775,0.347107,-0.625465,0.498792,-0.498792,0.625465,-0.347107,0.720775,-0.178017,0.779942,0.000000,0.800000,0.600000,0.800000,0.605014,0.794986,0.605014,0.794986,$1*%
%AMFreePoly2*
4,1,29,0.605014,0.794986,0.644504,0.794986,0.724698,0.756366,0.780194,0.686777,0.800000,0.600000,0.800000,-0.600000,0.780194,-0.686777,0.724698,-0.756366,0.644504,-0.794986,0.605014,-0.794986,0.600000,-0.800000,0.000000,-0.800000,-1.600000,-0.800000,-1.778017,-0.779942,-1.947107,-0.720775,-2.098792,-0.625465,-2.225465,-0.498792,-2.320775,-0.347107,-2.379942,-0.178017,-2.400000,0.000000,
-2.379942,0.178017,-2.320775,0.347107,-2.225465,0.498792,-2.098792,0.625465,-1.947107,0.720775,-1.778017,0.779942,-1.600000,0.800000,0.600000,0.800000,0.605014,0.794986,0.605014,0.794986,$1*%
%AMFreePoly3*
4,1,28,0.178017,0.779942,0.347107,0.720775,0.498792,0.625465,0.625465,0.498792,0.720775,0.347107,0.779942,0.178017,0.800000,0.000000,0.779942,-0.178017,0.720775,-0.347107,0.625465,-0.498792,0.498792,-0.625465,0.347107,-0.720775,0.178017,-0.779942,0.000000,-0.800000,-0.600000,-0.800000,-0.605014,-0.794986,-0.644504,-0.794986,-0.724698,-0.756366,-0.780194,-0.686777,-0.800000,-0.600000,
-0.800000,0.600000,-0.780194,0.686777,-0.724698,0.756366,-0.644504,0.794986,-0.605014,0.794986,-0.600000,0.800000,0.000000,0.800000,0.178017,0.779942,0.178017,0.779942,$1*%
%AMFreePoly4*
4,1,29,1.778017,0.779942,1.947107,0.720775,2.098792,0.625465,2.225465,0.498792,2.320775,0.347107,2.379942,0.178017,2.400000,0.000000,2.379942,-0.178017,2.320775,-0.347107,2.225465,-0.498792,2.098792,-0.625465,1.947107,-0.720775,1.778017,-0.779942,1.600000,-0.800000,0.000000,-0.800000,-0.600000,-0.800000,-0.605014,-0.794986,-0.644504,-0.794986,-0.724698,-0.756366,-0.780194,-0.686777,
-0.800000,-0.600000,-0.800000,0.600000,-0.780194,0.686777,-0.724698,0.756366,-0.644504,0.794986,-0.605014,0.794986,-0.600000,0.800000,1.600000,0.800000,1.778017,0.779942,1.778017,0.779942,$1*%
G04 Aperture macros list end*
%ADD10C,0.100000*%
%ADD11RoundRect,0.250000X0.350000X0.450000X-0.350000X0.450000X-0.350000X-0.450000X0.350000X-0.450000X0*%
%ADD12RoundRect,0.250000X-0.350000X-0.450000X0.350000X-0.450000X0.350000X0.450000X-0.350000X0.450000X0*%
%ADD13RoundRect,0.249999X-1.425001X0.450001X-1.425001X-0.450001X1.425001X-0.450001X1.425001X0.450001X0*%
%ADD14R,1.600000X1.600000*%
%ADD15C,1.600000*%
%ADD16RoundRect,0.250000X0.475000X-0.337500X0.475000X0.337500X-0.475000X0.337500X-0.475000X-0.337500X0*%
%ADD17R,1.800000X1.800000*%
%ADD18O,1.800000X1.800000*%
%ADD19R,1.700000X1.700000*%
%ADD20O,1.700000X1.700000*%
%ADD21O,1.600000X1.600000*%
%ADD22C,2.200000*%
%ADD23C,1.850000*%
%ADD24RoundRect,0.200000X-0.600000X-0.600000X0.600000X-0.600000X0.600000X0.600000X-0.600000X0.600000X0*%
%ADD25FreePoly0,0.000000*%
%ADD26RoundRect,0.800000X-0.800000X-0.000010X0.800000X-0.000010X0.800000X0.000010X-0.800000X0.000010X0*%
%ADD27FreePoly1,0.000000*%
%ADD28FreePoly2,0.000000*%
%ADD29FreePoly3,0.000000*%
%ADD30FreePoly4,0.000000*%
%ADD31O,3.500000X3.500000*%
%ADD32R,1.905000X2.000000*%
%ADD33O,1.905000X2.000000*%
%ADD34C,5.500000*%
%ADD35RoundRect,0.250000X-0.475000X0.337500X-0.475000X-0.337500X0.475000X-0.337500X0.475000X0.337500X0*%
%ADD36RoundRect,0.250000X-0.450000X0.350000X-0.450000X-0.350000X0.450000X-0.350000X0.450000X0.350000X0*%
%ADD37R,2.200000X2.200000*%
%ADD38O,2.200000X2.200000*%
%ADD39R,1.200000X1.200000*%
%ADD40RoundRect,0.675000X0.675000X0.675000X-0.675000X0.675000X-0.675000X-0.675000X0.675000X-0.675000X0*%
%ADD41C,2.700000*%
%ADD42O,2.500000X1.600000*%
%ADD43O,7.000000X3.500000*%
%ADD44R,2.000000X1.905000*%
%ADD45O,2.000000X1.905000*%
%ADD46RoundRect,0.250000X0.450000X-0.350000X0.450000X0.350000X-0.450000X0.350000X-0.450000X-0.350000X0*%
%ADD47R,1.500000X1.600000*%
%ADD48R,3.500000X3.500000*%
%ADD49RoundRect,0.750000X0.750000X1.000000X-0.750000X1.000000X-0.750000X-1.000000X0.750000X-1.000000X0*%
%ADD50RoundRect,0.875000X0.875000X0.875000X-0.875000X0.875000X-0.875000X-0.875000X0.875000X-0.875000X0*%
%ADD51R,1.600000X2.400000*%
%ADD52O,1.600000X2.400000*%
%ADD53RoundRect,0.250000X0.337500X0.475000X-0.337500X0.475000X-0.337500X-0.475000X0.337500X-0.475000X0*%
%ADD54RoundRect,0.249999X1.425001X-0.450001X1.425001X0.450001X-1.425001X0.450001X-1.425001X-0.450001X0*%
%ADD55C,2.600000*%
%ADD56C,3.000000*%
%ADD57C,2.500000*%
%ADD58R,1.600000X1.500000*%
G04 APERTURE END LIST*
D10*
X188595000Y-51689000D02*
X178435000Y-51689000D01*
X178435000Y-36195000D01*
X188595000Y-36195000D01*
X188595000Y-51689000D01*
G36*
X188595000Y-51689000D02*
G01*
X178435000Y-51689000D01*
X178435000Y-36195000D01*
X188595000Y-36195000D01*
X188595000Y-51689000D01*
G37*
D11*
%TO.C,R28*%
X138652000Y-71120000D03*
X136652000Y-71120000D03*
%TD*%
D12*
%TO.C,R41*%
X118745000Y-57785000D03*
X120745000Y-57785000D03*
%TD*%
D13*
%TO.C,R43*%
X125095000Y-68070000D03*
X125095000Y-74170000D03*
%TD*%
D14*
%TO.C,C6*%
X171504887Y-72390000D03*
D15*
X174004887Y-72390000D03*
%TD*%
D16*
%TO.C,C15*%
X137160000Y-43582500D03*
X137160000Y-41507500D03*
%TD*%
D11*
%TO.C,R20*%
X138652000Y-45720000D03*
X136652000Y-45720000D03*
%TD*%
D17*
%TO.C,Q4*%
X116580000Y-69975000D03*
D18*
X116580000Y-67435000D03*
X116580000Y-64895000D03*
%TD*%
D19*
%TO.C,J3*%
X155575000Y-98425000D03*
D20*
X153035000Y-98425000D03*
X150495000Y-98425000D03*
X147955000Y-98425000D03*
%TD*%
D14*
%TO.C,U6*%
X132937500Y-54549800D03*
D21*
X132937500Y-52009800D03*
X132937500Y-49469800D03*
X132937500Y-46929800D03*
X125317500Y-46929800D03*
X125317500Y-49469800D03*
X125317500Y-52009800D03*
X125317500Y-54549800D03*
%TD*%
D11*
%TO.C,R21*%
X138652000Y-50800000D03*
X136652000Y-50800000D03*
%TD*%
D12*
%TO.C,R12*%
X141748000Y-50800000D03*
X143748000Y-50800000D03*
%TD*%
D19*
%TO.C,J5*%
X172085000Y-78740000D03*
D20*
X172085000Y-81280000D03*
X172085000Y-83820000D03*
%TD*%
D19*
%TO.C,J6*%
X172085000Y-60960000D03*
D20*
X172085000Y-63500000D03*
X172085000Y-66040000D03*
%TD*%
D22*
%TO.C,U1*%
X154875000Y-43337500D03*
D23*
X155175000Y-46367500D03*
X160025000Y-46367500D03*
D22*
X160325000Y-43337500D03*
D24*
X148710000Y-43207500D03*
D25*
X148710000Y-43207500D03*
D15*
X148710000Y-45747500D03*
D26*
X147910000Y-45747500D03*
D27*
X148710000Y-48287500D03*
D28*
X148710000Y-48287500D03*
D15*
X148710000Y-50827500D03*
D26*
X147910000Y-50827500D03*
D15*
X148710000Y-53367500D03*
D26*
X147910000Y-53367500D03*
D15*
X148710000Y-55907500D03*
D26*
X147910000Y-55907500D03*
D15*
X148710000Y-58447500D03*
D26*
X147910000Y-58447500D03*
D27*
X148710000Y-60987500D03*
D28*
X148710000Y-60987500D03*
D15*
X148710000Y-63527500D03*
D26*
X147910000Y-63527500D03*
D15*
X148710000Y-66067500D03*
D26*
X147910000Y-66067500D03*
D15*
X148710000Y-68607500D03*
D26*
X147910000Y-68607500D03*
D15*
X148710000Y-71147500D03*
D26*
X147910000Y-71147500D03*
D27*
X148710000Y-73687500D03*
D28*
X148710000Y-73687500D03*
D15*
X148710000Y-76227500D03*
D26*
X147910000Y-76227500D03*
D15*
X148710000Y-78767500D03*
D26*
X147910000Y-78767500D03*
D15*
X148710000Y-81307500D03*
D26*
X147910000Y-81307500D03*
D15*
X148710000Y-83847500D03*
D26*
X147910000Y-83847500D03*
D27*
X148710000Y-86387500D03*
D28*
X148710000Y-86387500D03*
D15*
X148710000Y-88927500D03*
D26*
X147910000Y-88927500D03*
D15*
X148710000Y-91467500D03*
D26*
X147910000Y-91467500D03*
D15*
X166490000Y-91467500D03*
D26*
X167290000Y-91467500D03*
D15*
X166490000Y-88927500D03*
D26*
X167290000Y-88927500D03*
D29*
X166490000Y-86387500D03*
D30*
X166490000Y-86387500D03*
D15*
X166490000Y-83847500D03*
D26*
X167290000Y-83847500D03*
D15*
X166490000Y-81307500D03*
D26*
X167290000Y-81307500D03*
D15*
X166490000Y-78767500D03*
D26*
X167290000Y-78767500D03*
D15*
X166490000Y-76227500D03*
D26*
X167290000Y-76227500D03*
D29*
X166490000Y-73687500D03*
D30*
X166490000Y-73687500D03*
D15*
X166490000Y-71147500D03*
D26*
X167290000Y-71147500D03*
D15*
X166490000Y-68607500D03*
D26*
X167290000Y-68607500D03*
D15*
X166490000Y-66067500D03*
D26*
X167290000Y-66067500D03*
D15*
X166490000Y-63527500D03*
D26*
X167290000Y-63527500D03*
D29*
X166490000Y-60987500D03*
D30*
X166490000Y-60987500D03*
D15*
X166490000Y-58447500D03*
D26*
X167290000Y-58447500D03*
D15*
X166490000Y-55907500D03*
D26*
X167290000Y-55907500D03*
D15*
X166490000Y-53367500D03*
D26*
X167290000Y-53367500D03*
D15*
X166490000Y-50827500D03*
D26*
X167290000Y-50827500D03*
D29*
X166490000Y-48287500D03*
D30*
X166490000Y-48287500D03*
D15*
X166490000Y-45747500D03*
D26*
X167290000Y-45747500D03*
D15*
X166490000Y-43207500D03*
D26*
X167290000Y-43207500D03*
%TD*%
D11*
%TO.C,R23*%
X138652000Y-55880000D03*
X136652000Y-55880000D03*
%TD*%
D31*
%TO.C,U3*%
X183515000Y-38925000D03*
D32*
X180975000Y-55585000D03*
D33*
X183515000Y-55585000D03*
X186055000Y-55585000D03*
%TD*%
D17*
%TO.C,Q1*%
X208915000Y-47447556D03*
D18*
X208915000Y-49987556D03*
X208915000Y-52527556D03*
%TD*%
D34*
%TO.C,REF\u002A\u002A*%
X115570000Y-35560000D03*
%TD*%
D35*
%TO.C,C5*%
X176530000Y-52937500D03*
X176530000Y-55012500D03*
%TD*%
D34*
%TO.C,REF\u002A\u002A*%
X115570000Y-99695000D03*
%TD*%
D36*
%TO.C,R31*%
X142240000Y-74565000D03*
X142240000Y-76565000D03*
%TD*%
D19*
%TO.C,J7*%
X172085000Y-54610000D03*
D20*
X172085000Y-52070000D03*
X172085000Y-49530000D03*
%TD*%
D37*
%TO.C,D2*%
X187950000Y-75555000D03*
D38*
X177790000Y-75555000D03*
%TD*%
D14*
%TO.C,C22*%
X124460000Y-38735000D03*
D15*
X121960000Y-38735000D03*
%TD*%
D39*
%TO.C,D9*%
X127130000Y-61595000D03*
X124330000Y-61595000D03*
%TD*%
D14*
%TO.C,C7*%
X201930000Y-48717556D03*
D15*
X201930000Y-46717556D03*
%TD*%
D12*
%TO.C,R16*%
X141748000Y-63500000D03*
X143748000Y-63500000D03*
%TD*%
D39*
%TO.C,D8*%
X122050000Y-61595000D03*
X119250000Y-61595000D03*
%TD*%
D36*
%TO.C,R39*%
X119380000Y-63770000D03*
X119380000Y-65770000D03*
%TD*%
D40*
%TO.C,F1*%
X202055000Y-99060000D03*
X195295000Y-99060000D03*
D41*
X185705000Y-99060000D03*
X178945000Y-99060000D03*
%TD*%
D36*
%TO.C,R30*%
X144780000Y-74565000D03*
X144780000Y-76565000D03*
%TD*%
D12*
%TO.C,R13*%
X141748000Y-53340000D03*
X143748000Y-53340000D03*
%TD*%
%TO.C,R14*%
X141748000Y-55880000D03*
X143748000Y-55880000D03*
%TD*%
D36*
%TO.C,R32*%
X139700000Y-41545000D03*
X139700000Y-43545000D03*
%TD*%
D42*
%TO.C,J2*%
X125095000Y-88265000D03*
D43*
X120015000Y-93345000D03*
D42*
X125095000Y-90805000D03*
D43*
X120015000Y-83185000D03*
%TD*%
D44*
%TO.C,U5*%
X207962500Y-57607556D03*
D45*
X207962500Y-60147556D03*
X207962500Y-62687556D03*
%TD*%
D44*
%TO.C,U4*%
X207985000Y-36652556D03*
D45*
X207985000Y-39192556D03*
X207985000Y-41732556D03*
%TD*%
D46*
%TO.C,R40*%
X127000000Y-65770000D03*
X127000000Y-63770000D03*
%TD*%
D39*
%TO.C,R6*%
X204365000Y-36446056D03*
D47*
X201115000Y-35446056D03*
D39*
X204365000Y-34446056D03*
%TD*%
D48*
%TO.C,J1*%
X197200000Y-86995000D03*
D49*
X203200000Y-86995000D03*
D50*
X200200000Y-82295000D03*
%TD*%
D14*
%TO.C,C8*%
X204470000Y-75772556D03*
D15*
X204470000Y-73772556D03*
%TD*%
D16*
%TO.C,C1*%
X172085000Y-45487500D03*
X172085000Y-43412500D03*
%TD*%
D14*
%TO.C,C23*%
X132650113Y-41910000D03*
D15*
X130150113Y-41910000D03*
%TD*%
D12*
%TO.C,R18*%
X141748000Y-68580000D03*
X143748000Y-68580000D03*
%TD*%
D51*
%TO.C,U2*%
X185410000Y-80010000D03*
D52*
X182870000Y-80010000D03*
X180330000Y-80010000D03*
X177790000Y-80010000D03*
X177790000Y-87630000D03*
X180330000Y-87630000D03*
X182870000Y-87630000D03*
X185410000Y-87630000D03*
%TD*%
D14*
%TO.C,C13*%
X196850000Y-40704888D03*
D15*
X196850000Y-43204888D03*
%TD*%
D11*
%TO.C,R22*%
X138652000Y-53340000D03*
X136652000Y-53340000D03*
%TD*%
D17*
%TO.C,Q5*%
X130550000Y-69975000D03*
D18*
X130550000Y-67435000D03*
X130550000Y-64895000D03*
%TD*%
D14*
%TO.C,C2*%
X180290000Y-92065000D03*
D15*
X177790000Y-92065000D03*
%TD*%
D11*
%TO.C,R29*%
X138652000Y-73660000D03*
X136652000Y-73660000D03*
%TD*%
%TO.C,R24*%
X138652000Y-58420000D03*
X136652000Y-58420000D03*
%TD*%
D53*
%TO.C,C4*%
X180742500Y-59055000D03*
X178667500Y-59055000D03*
%TD*%
D12*
%TO.C,R11*%
X141748000Y-45720000D03*
X143748000Y-45720000D03*
%TD*%
D14*
%TO.C,U7*%
X120882500Y-54539800D03*
D21*
X120882500Y-51999800D03*
X120882500Y-49459800D03*
X120882500Y-46919800D03*
X113262500Y-46919800D03*
X113262500Y-49459800D03*
X113262500Y-51999800D03*
X113262500Y-54539800D03*
%TD*%
D19*
%TO.C,J4*%
X172085000Y-91440000D03*
D20*
X172085000Y-88900000D03*
%TD*%
D54*
%TO.C,R42*%
X120650000Y-74170000D03*
X120650000Y-68070000D03*
%TD*%
D12*
%TO.C,R15*%
X141748000Y-58420000D03*
X143748000Y-58420000D03*
%TD*%
%TO.C,R19*%
X141748000Y-71120000D03*
X143748000Y-71120000D03*
%TD*%
D34*
%TO.C,REF\u002A\u002A*%
X207645000Y-99695000D03*
%TD*%
D14*
%TO.C,C12*%
X198120000Y-56337556D03*
D15*
X198120000Y-58337556D03*
%TD*%
D55*
%TO.C,L1*%
X187315000Y-68580000D03*
X182315000Y-68580000D03*
%TD*%
D56*
%TO.C,K1*%
X135890000Y-79375000D03*
X141890000Y-93575000D03*
D57*
X129840000Y-81325000D03*
X141840000Y-81325000D03*
%TD*%
D11*
%TO.C,R38*%
X124825000Y-57785000D03*
X122825000Y-57785000D03*
%TD*%
D14*
%TO.C,C11*%
X196850000Y-34811056D03*
D15*
X196850000Y-36811056D03*
%TD*%
D11*
%TO.C,R26*%
X138652000Y-66040000D03*
X136652000Y-66040000D03*
%TD*%
D12*
%TO.C,R10*%
X141748000Y-43180000D03*
X143748000Y-43180000D03*
%TD*%
D11*
%TO.C,R27*%
X138652000Y-68707000D03*
X136652000Y-68707000D03*
%TD*%
D12*
%TO.C,R17*%
X141748000Y-66040000D03*
X143748000Y-66040000D03*
%TD*%
D14*
%TO.C,C14*%
X200660000Y-67767556D03*
D15*
X200660000Y-65267556D03*
%TD*%
D17*
%TO.C,Q2*%
X208907500Y-68085056D03*
D18*
X208907500Y-70625056D03*
X208907500Y-73165056D03*
%TD*%
D11*
%TO.C,R25*%
X138652000Y-63500000D03*
X136652000Y-63500000D03*
%TD*%
D39*
%TO.C,R7*%
X202192500Y-60677556D03*
D58*
X203192500Y-57427556D03*
D39*
X204192500Y-60677556D03*
%TD*%
D12*
%TO.C,R34*%
X138065000Y-76835000D03*
X140065000Y-76835000D03*
%TD*%
M02*
