%TF.GenerationSoftware,KiCad,Pcbnew,8.0.1*%
%TF.CreationDate,2024-05-10T21:26:45+02:00*%
%TF.ProjectId,SiganlGen,53696761-6e6c-4476-956e-2e6b69636164,rev?*%
%TF.SameCoordinates,Original*%
%TF.FileFunction,Soldermask,Bot*%
%TF.FilePolarity,Negative*%
%FSLAX46Y46*%
G04 Gerber Fmt 4.6, Leading zero omitted, Abs format (unit mm)*
G04 Created by KiCad (PCBNEW 8.0.1) date 2024-05-10 21:26:45*
%MOMM*%
%LPD*%
G01*
G04 APERTURE LIST*
G04 Aperture macros list*
%AMRoundRect*
0 Rectangle with rounded corners*
0 $1 Rounding radius*
0 $2 $3 $4 $5 $6 $7 $8 $9 X,Y pos of 4 corners*
0 Add a 4 corners polygon primitive as box body*
4,1,4,$2,$3,$4,$5,$6,$7,$8,$9,$2,$3,0*
0 Add four circle primitives for the rounded corners*
1,1,$1+$1,$2,$3*
1,1,$1+$1,$4,$5*
1,1,$1+$1,$6,$7*
1,1,$1+$1,$8,$9*
0 Add four rect primitives between the rounded corners*
20,1,$1+$1,$2,$3,$4,$5,0*
20,1,$1+$1,$4,$5,$6,$7,0*
20,1,$1+$1,$6,$7,$8,$9,0*
20,1,$1+$1,$8,$9,$2,$3,0*%
%AMFreePoly0*
4,1,28,0.605014,0.794986,0.644504,0.794986,0.724698,0.756366,0.780194,0.686777,0.800000,0.600000,0.800000,-0.600000,0.780194,-0.686777,0.724698,-0.756366,0.644504,-0.794986,0.605014,-0.794986,0.600000,-0.800000,0.000000,-0.800000,-0.178017,-0.779942,-0.347107,-0.720775,-0.498792,-0.625465,-0.625465,-0.498792,-0.720775,-0.347107,-0.779942,-0.178017,-0.800000,0.000000,-0.779942,0.178017,
-0.720775,0.347107,-0.625465,0.498792,-0.498792,0.625465,-0.347107,0.720775,-0.178017,0.779942,0.000000,0.800000,0.600000,0.800000,0.605014,0.794986,0.605014,0.794986,$1*%
%AMFreePoly1*
4,1,28,0.178017,0.779942,0.347107,0.720775,0.498792,0.625465,0.625465,0.498792,0.720775,0.347107,0.779942,0.178017,0.800000,0.000000,0.779942,-0.178017,0.720775,-0.347107,0.625465,-0.498792,0.498792,-0.625465,0.347107,-0.720775,0.178017,-0.779942,0.000000,-0.800000,-0.600000,-0.800000,-0.605014,-0.794986,-0.644504,-0.794986,-0.724698,-0.756366,-0.780194,-0.686777,-0.800000,-0.600000,
-0.800000,0.600000,-0.780194,0.686777,-0.724698,0.756366,-0.644504,0.794986,-0.605014,0.794986,-0.600000,0.800000,0.000000,0.800000,0.178017,0.779942,0.178017,0.779942,$1*%
G04 Aperture macros list end*
%ADD10R,1.600000X1.600000*%
%ADD11C,1.600000*%
%ADD12R,1.800000X1.800000*%
%ADD13O,1.800000X1.800000*%
%ADD14R,1.700000X1.700000*%
%ADD15O,1.700000X1.700000*%
%ADD16O,1.600000X1.600000*%
%ADD17C,2.200000*%
%ADD18C,1.850000*%
%ADD19RoundRect,0.200000X-0.600000X-0.600000X0.600000X-0.600000X0.600000X0.600000X-0.600000X0.600000X0*%
%ADD20FreePoly0,0.000000*%
%ADD21FreePoly1,0.000000*%
%ADD22O,3.500000X3.500000*%
%ADD23R,1.905000X2.000000*%
%ADD24O,1.905000X2.000000*%
%ADD25C,5.500000*%
%ADD26R,2.200000X2.200000*%
%ADD27O,2.200000X2.200000*%
%ADD28RoundRect,0.675000X0.675000X0.675000X-0.675000X0.675000X-0.675000X-0.675000X0.675000X-0.675000X0*%
%ADD29C,2.700000*%
%ADD30O,2.500000X1.600000*%
%ADD31O,7.000000X3.500000*%
%ADD32R,2.000000X1.905000*%
%ADD33O,2.000000X1.905000*%
%ADD34R,3.500000X3.500000*%
%ADD35RoundRect,0.750000X0.750000X1.000000X-0.750000X1.000000X-0.750000X-1.000000X0.750000X-1.000000X0*%
%ADD36RoundRect,0.875000X0.875000X0.875000X-0.875000X0.875000X-0.875000X-0.875000X0.875000X-0.875000X0*%
%ADD37R,1.600000X2.400000*%
%ADD38O,1.600000X2.400000*%
%ADD39C,2.600000*%
%ADD40C,3.000000*%
%ADD41C,2.500000*%
%ADD42RoundRect,0.250000X-0.450000X0.350000X-0.450000X-0.350000X0.450000X-0.350000X0.450000X0.350000X0*%
%ADD43RoundRect,0.250000X-0.337500X-0.475000X0.337500X-0.475000X0.337500X0.475000X-0.337500X0.475000X0*%
%ADD44RoundRect,0.250000X0.475000X-0.337500X0.475000X0.337500X-0.475000X0.337500X-0.475000X-0.337500X0*%
%ADD45RoundRect,0.200000X0.200000X-0.750000X0.200000X0.750000X-0.200000X0.750000X-0.200000X-0.750000X0*%
%ADD46RoundRect,0.249999X-0.450001X-1.425001X0.450001X-1.425001X0.450001X1.425001X-0.450001X1.425001X0*%
%ADD47RoundRect,0.250000X0.450000X-0.350000X0.450000X0.350000X-0.450000X0.350000X-0.450000X-0.350000X0*%
%ADD48RoundRect,0.250000X0.300000X-0.300000X0.300000X0.300000X-0.300000X0.300000X-0.300000X-0.300000X0*%
%ADD49RoundRect,0.250000X0.337500X0.475000X-0.337500X0.475000X-0.337500X-0.475000X0.337500X-0.475000X0*%
%ADD50RoundRect,0.250000X-0.350000X-0.450000X0.350000X-0.450000X0.350000X0.450000X-0.350000X0.450000X0*%
%ADD51RoundRect,0.250000X-0.300000X0.300000X-0.300000X-0.300000X0.300000X-0.300000X0.300000X0.300000X0*%
%ADD52RoundRect,0.250000X-0.300000X-0.300000X0.300000X-0.300000X0.300000X0.300000X-0.300000X0.300000X0*%
%ADD53RoundRect,0.250000X0.350000X0.450000X-0.350000X0.450000X-0.350000X-0.450000X0.350000X-0.450000X0*%
G04 APERTURE END LIST*
D10*
%TO.C,C6*%
X171504887Y-72390000D03*
D11*
X174004887Y-72390000D03*
%TD*%
D12*
%TO.C,Q4*%
X116580000Y-69975000D03*
D13*
X116580000Y-67435000D03*
X116580000Y-64895000D03*
%TD*%
D14*
%TO.C,J3*%
X155575000Y-98425000D03*
D15*
X153035000Y-98425000D03*
X150495000Y-98425000D03*
X147955000Y-98425000D03*
%TD*%
D10*
%TO.C,U6*%
X132937500Y-54549800D03*
D16*
X132937500Y-52009800D03*
X132937500Y-49469800D03*
X132937500Y-46929800D03*
X125317500Y-46929800D03*
X125317500Y-49469800D03*
X125317500Y-52009800D03*
X125317500Y-54549800D03*
%TD*%
D14*
%TO.C,J5*%
X172085000Y-78740000D03*
D15*
X172085000Y-81280000D03*
X172085000Y-83820000D03*
%TD*%
D14*
%TO.C,J6*%
X172085000Y-60960000D03*
D15*
X172085000Y-63500000D03*
X172085000Y-66040000D03*
%TD*%
D17*
%TO.C,U1*%
X154875000Y-43337500D03*
D18*
X155175000Y-46367500D03*
X160025000Y-46367500D03*
D17*
X160325000Y-43337500D03*
D19*
X148710000Y-43207500D03*
D11*
X148710000Y-45747500D03*
D20*
X148710000Y-48287500D03*
D11*
X148710000Y-50827500D03*
X148710000Y-53367500D03*
X148710000Y-55907500D03*
X148710000Y-58447500D03*
D20*
X148710000Y-60987500D03*
D11*
X148710000Y-63527500D03*
X148710000Y-66067500D03*
X148710000Y-68607500D03*
X148710000Y-71147500D03*
D20*
X148710000Y-73687500D03*
D11*
X148710000Y-76227500D03*
X148710000Y-78767500D03*
X148710000Y-81307500D03*
X148710000Y-83847500D03*
D20*
X148710000Y-86387500D03*
D11*
X148710000Y-88927500D03*
X148710000Y-91467500D03*
X166490000Y-91467500D03*
X166490000Y-88927500D03*
D21*
X166490000Y-86387500D03*
D11*
X166490000Y-83847500D03*
X166490000Y-81307500D03*
X166490000Y-78767500D03*
X166490000Y-76227500D03*
D21*
X166490000Y-73687500D03*
D11*
X166490000Y-71147500D03*
X166490000Y-68607500D03*
X166490000Y-66067500D03*
X166490000Y-63527500D03*
D21*
X166490000Y-60987500D03*
D11*
X166490000Y-58447500D03*
X166490000Y-55907500D03*
X166490000Y-53367500D03*
X166490000Y-50827500D03*
D21*
X166490000Y-48287500D03*
D11*
X166490000Y-45747500D03*
X166490000Y-43207500D03*
%TD*%
D22*
%TO.C,U3*%
X183515000Y-38925000D03*
D23*
X180975000Y-55585000D03*
D24*
X183515000Y-55585000D03*
X186055000Y-55585000D03*
%TD*%
D12*
%TO.C,Q1*%
X208915000Y-47447556D03*
D13*
X208915000Y-49987556D03*
X208915000Y-52527556D03*
%TD*%
D25*
%TO.C,REF\u002A\u002A*%
X115570000Y-35560000D03*
%TD*%
%TO.C,REF\u002A\u002A*%
X115570000Y-99695000D03*
%TD*%
D14*
%TO.C,J7*%
X172085000Y-54610000D03*
D15*
X172085000Y-52070000D03*
X172085000Y-49530000D03*
%TD*%
D26*
%TO.C,D2*%
X187950000Y-75555000D03*
D27*
X177790000Y-75555000D03*
%TD*%
D10*
%TO.C,C22*%
X124460000Y-38735000D03*
D11*
X121960000Y-38735000D03*
%TD*%
D10*
%TO.C,C7*%
X201930000Y-48717556D03*
D11*
X201930000Y-46717556D03*
%TD*%
D28*
%TO.C,F1*%
X202055000Y-99060000D03*
X195295000Y-99060000D03*
D29*
X185705000Y-99060000D03*
X178945000Y-99060000D03*
%TD*%
D30*
%TO.C,J2*%
X125095000Y-88265000D03*
D31*
X120015000Y-93345000D03*
D30*
X125095000Y-90805000D03*
D31*
X120015000Y-83185000D03*
%TD*%
D32*
%TO.C,U5*%
X207962500Y-57607556D03*
D33*
X207962500Y-60147556D03*
X207962500Y-62687556D03*
%TD*%
D32*
%TO.C,U4*%
X207985000Y-36652556D03*
D33*
X207985000Y-39192556D03*
X207985000Y-41732556D03*
%TD*%
D34*
%TO.C,J1*%
X197200000Y-86995000D03*
D35*
X203200000Y-86995000D03*
D36*
X200200000Y-82295000D03*
%TD*%
D10*
%TO.C,C8*%
X204470000Y-75772556D03*
D11*
X204470000Y-73772556D03*
%TD*%
D10*
%TO.C,C23*%
X132650113Y-41910000D03*
D11*
X130150113Y-41910000D03*
%TD*%
D37*
%TO.C,U2*%
X185410000Y-80010000D03*
D38*
X182870000Y-80010000D03*
X180330000Y-80010000D03*
X177790000Y-80010000D03*
X177790000Y-87630000D03*
X180330000Y-87630000D03*
X182870000Y-87630000D03*
X185410000Y-87630000D03*
%TD*%
D10*
%TO.C,C13*%
X196850000Y-40704888D03*
D11*
X196850000Y-43204888D03*
%TD*%
D12*
%TO.C,Q5*%
X130550000Y-69975000D03*
D13*
X130550000Y-67435000D03*
X130550000Y-64895000D03*
%TD*%
D10*
%TO.C,C2*%
X180290000Y-92065000D03*
D11*
X177790000Y-92065000D03*
%TD*%
D10*
%TO.C,U7*%
X120882500Y-54539800D03*
D16*
X120882500Y-51999800D03*
X120882500Y-49459800D03*
X120882500Y-46919800D03*
X113262500Y-46919800D03*
X113262500Y-49459800D03*
X113262500Y-51999800D03*
X113262500Y-54539800D03*
%TD*%
D14*
%TO.C,J4*%
X172085000Y-91440000D03*
D15*
X172085000Y-88900000D03*
%TD*%
D25*
%TO.C,REF\u002A\u002A*%
X207645000Y-99695000D03*
%TD*%
D10*
%TO.C,C12*%
X198120000Y-56337556D03*
D11*
X198120000Y-58337556D03*
%TD*%
D39*
%TO.C,L1*%
X187315000Y-68580000D03*
X182315000Y-68580000D03*
%TD*%
D40*
%TO.C,K1*%
X135890000Y-79375000D03*
X141890000Y-93575000D03*
D41*
X129840000Y-81325000D03*
X141840000Y-81325000D03*
%TD*%
D10*
%TO.C,C11*%
X196850000Y-34811056D03*
D11*
X196850000Y-36811056D03*
%TD*%
D10*
%TO.C,C14*%
X200660000Y-67767556D03*
D11*
X200660000Y-65267556D03*
%TD*%
D12*
%TO.C,Q2*%
X208907500Y-68085056D03*
D13*
X208907500Y-70625056D03*
X208907500Y-73165056D03*
%TD*%
D42*
%TO.C,R5*%
X200025000Y-71212556D03*
X200025000Y-73212556D03*
%TD*%
D43*
%TO.C,C21*%
X116680000Y-46929800D03*
X118755000Y-46929800D03*
%TD*%
D44*
%TO.C,C24*%
X132080000Y-81047500D03*
X132080000Y-78972500D03*
%TD*%
D45*
%TO.C,Q6*%
X141285000Y-87225000D03*
X139385000Y-87225000D03*
X140335000Y-84225000D03*
%TD*%
D46*
%TO.C,R36*%
X129665000Y-95885000D03*
X135765000Y-95885000D03*
%TD*%
D47*
%TO.C,R9*%
X198112500Y-63052556D03*
X198112500Y-61052556D03*
%TD*%
D43*
%TO.C,C20*%
X115410000Y-52009800D03*
X117485000Y-52009800D03*
%TD*%
D46*
%TO.C,R35*%
X129665000Y-91440000D03*
X135765000Y-91440000D03*
%TD*%
D48*
%TO.C,D3*%
X204462500Y-62817556D03*
X204462500Y-60017556D03*
%TD*%
%TO.C,D4*%
X204470000Y-41926056D03*
X204470000Y-39126056D03*
%TD*%
D43*
%TO.C,C10*%
X204702500Y-67767556D03*
X206777500Y-67767556D03*
%TD*%
D49*
%TO.C,C9*%
X207412500Y-44907556D03*
X205337500Y-44907556D03*
%TD*%
D50*
%TO.C,R3*%
X176165000Y-85080000D03*
X178165000Y-85080000D03*
%TD*%
D48*
%TO.C,D5*%
X201295000Y-36211056D03*
X201295000Y-33411056D03*
%TD*%
D42*
%TO.C,R37*%
X123092300Y-48530000D03*
X123092300Y-50530000D03*
%TD*%
%TO.C,R4*%
X205480000Y-48352556D03*
X205480000Y-50352556D03*
%TD*%
D50*
%TO.C,R1*%
X181235000Y-85080000D03*
X183235000Y-85080000D03*
%TD*%
D42*
%TO.C,R33*%
X143510000Y-84725000D03*
X143510000Y-86725000D03*
%TD*%
D51*
%TO.C,D6*%
X201287500Y-60017556D03*
X201287500Y-62817556D03*
%TD*%
D43*
%TO.C,C19*%
X125327500Y-67435000D03*
X127402500Y-67435000D03*
%TD*%
D49*
%TO.C,C3*%
X182637500Y-82810000D03*
X180562500Y-82810000D03*
%TD*%
D52*
%TO.C,D7*%
X134490000Y-82550000D03*
X137290000Y-82550000D03*
%TD*%
D53*
%TO.C,R2*%
X178155000Y-82810000D03*
X176155000Y-82810000D03*
%TD*%
D43*
%TO.C,C18*%
X118977500Y-67435000D03*
X121052500Y-67435000D03*
%TD*%
%TO.C,C16*%
X127465000Y-52009800D03*
X129540000Y-52009800D03*
%TD*%
%TO.C,C17*%
X128502500Y-46929800D03*
X130577500Y-46929800D03*
%TD*%
D42*
%TO.C,R8*%
X204470000Y-33811056D03*
X204470000Y-35811056D03*
%TD*%
%TO.C,R44*%
X123092300Y-44669200D03*
X123092300Y-46669200D03*
%TD*%
M02*
